<?xml version="1.0" encoding="utf-8"?>
<!-- Generator: Adobe Illustrator 14.0.0, SVG Export Plug-In . SVG Version: 6.00 Build 43363)  -->
<!DOCTYPE svg PUBLIC "-//W3C//DTD SVG 1.1//EN" "http://www.w3.org/Graphics/SVG/1.1/DTD/svg11.dtd">
<svg version="1.1" id="Bee" xmlns="http://www.w3.org/2000/svg" xmlns:xlink="http://www.w3.org/1999/xlink" x="0px" y="0px"
	 width="100px" height="100px" viewBox="0 0 100 100" enable-background="new 0 0 100 100" xml:space="preserve">
<circle cx="49.87" cy="34.207" r="12.456"/>
<path fill="#FFFF00" stroke="#000000" d="M49.871,58.731c-7.883,0-14.275,2.257-14.275,12.719c0,10.463,6.392,25.177,14.275,25.177
	c7.885,0,14.275-14.714,14.275-25.177C64.146,60.988,57.756,58.731,49.871,58.731z"/>
<path stroke="#000000" d="M61.679,80.325c-0.385,1.509-1.589,3.844-1.589,3.844s-3.178,3.358-10.31,3.358
	c-7.132,0-10.12-3.358-10.12-3.358s-0.964-1.538-1.542-3.795s-0.771-3.796-0.771-3.796s4.044,2.677,12.14,2.677
	s12.915-2.68,12.915-2.68S62.064,78.816,61.679,80.325z"/>
<path stroke="#000000" d="M50.001,71.955c-10.075,0-13.043-1.864-13.043-1.864s-0.081-1.086,0.455-3.373s1.654-3.376,1.654-3.376
	s3.785,2.19,10.741,2.19s10.8-2.19,10.8-2.19s0.778,0.341,1.605,3.114c0.827,2.774,0.438,3.31,0.438,3.31
	S60.076,71.955,50.001,71.955z"/>
<circle cx="49.74" cy="53.025" r="10.123"/>
<g>
	<path d="M45.199,24.867h-3.115c0-9.445-10.362-17.129-23.099-17.129V4.624C33.439,4.624,45.199,13.705,45.199,24.867L45.199,24.867
		z"/>
</g>
<g>
	<path d="M57.917,25.775h-3.115c0-11.592,11.932-21.022,26.601-21.022v3.115C68.452,7.867,57.917,15.901,57.917,25.775
		L57.917,25.775z"/>
</g>
<circle cx="21.321" cy="6.57" r="2.985"/>
<circle cx="79.328" cy="6.31" r="2.853"/>
<g>
	<path d="M41.339,55.787c-8.768,0-32.617-5.191-37.306-10.342c-2.466-2.71-3.043-8.152-1.283-12.133
		c1.688-3.819,5.17-5.922,9.807-5.922c0.77,0,1.589,0.058,2.464,0.18c5.584,0.78,30.338,15.85,32.478,21.629
		c0.517,1.394,0.952,2.083,1.212,2.495c0.26,0.409,0.693,1.095,0.306,1.938c-0.386,0.843-1.189,0.961-1.668,1.031
		c-0.482,0.069-1.29,0.188-2.684,0.705C43.899,55.65,42.813,55.787,41.339,55.787L41.339,55.787z M12.557,30.504
		c-3.375,0-5.783,1.407-6.958,4.066c-1.356,3.07-0.73,7.167,0.737,8.779c3.498,3.841,25.639,9.323,35.003,9.323
		c1.474,0,2.059-0.158,2.243-0.227c0.655-0.242,1.213-0.414,1.685-0.538c-0.218-0.446-0.449-0.978-0.689-1.627
		c-1.551-4.185-24.982-18.927-29.99-19.627C13.868,30.553,13.193,30.504,12.557,30.504L12.557,30.504z"/>
</g>
<g>
	<path d="M15.211,69.719c-0.295,0-0.569-0.019-0.818-0.055c-2.932-0.414-6.653-3.632-7.521-7.768
		c-0.461-2.193-0.426-6.372,4.988-9.723c3.438-2.124,17.947-4.28,25.867-4.28c4.037,0,5.421,0.528,6.111,0.926
		c1.025,0.593,1.64,0.792,2.006,0.911c0.374,0.122,1.153,0.374,1.389,1.255c0.237,0.88-0.311,1.488-0.572,1.782
		c-0.259,0.287-0.69,0.77-1.281,1.797C42.997,58.682,22.176,69.719,15.211,69.719L15.211,69.719z M37.727,51.008
		c-8.37,0-21.79,2.309-24.229,3.815c-2.853,1.766-4.091,3.992-3.578,6.435c0.613,2.913,3.315,5.097,4.906,5.322
		c0.117,0.015,0.247,0.024,0.386,0.024c6.056,0,25.82-10.742,27.471-13.597c0.211-0.368,0.411-0.686,0.595-0.96
		c-0.298-0.144-0.628-0.319-0.996-0.532C42.136,51.432,41.221,51.008,37.727,51.008L37.727,51.008z"/>
</g>
<g>
	<path d="M58.665,55.787c-0.003,0-0.003,0-0.003,0c-1.473,0-2.562-0.137-3.321-0.42c-1.396-0.517-2.205-0.636-2.686-0.705
		c-0.48-0.07-1.284-0.188-1.67-1.031c-0.386-0.843,0.047-1.528,0.306-1.938c0.26-0.411,0.696-1.1,1.212-2.494
		c2.138-5.777,26.892-20.848,32.476-21.629c0.873-0.122,1.694-0.18,2.464-0.18c4.635,0,8.117,2.103,9.806,5.92
		c1.761,3.981,1.186,9.425-1.277,12.135C91.28,50.596,67.434,55.787,58.665,55.787L58.665,55.787z M54.735,51.909
		c0.48,0.126,1.034,0.297,1.685,0.538c0.183,0.067,0.77,0.226,2.242,0.226c9.364,0,31.506-5.48,35.003-9.323
		c1.466-1.612,2.093-5.71,0.736-8.779c-1.399-3.16-4.45-4.554-8.99-3.917c-5.01,0.701-28.44,15.442-29.988,19.626
		C55.18,50.935,54.948,51.47,54.735,51.909L54.735,51.909z"/>
</g>
<g>
	<path d="M84.793,69.719c-0.003,0-0.003,0-0.003,0c-6.968-0.003-27.789-11.04-30.164-15.152c-0.593-1.029-1.025-1.51-1.283-1.799
		c-0.264-0.292-0.811-0.902-0.573-1.782c0.235-0.881,1.014-1.133,1.388-1.255c0.368-0.119,0.979-0.318,2.005-0.909
		c0.69-0.4,2.077-0.928,6.113-0.928c7.919,0,22.43,2.156,25.866,4.28c5.414,3.351,5.45,7.529,4.988,9.723
		c-0.87,4.136-4.59,7.354-7.519,7.768C85.359,69.7,85.089,69.719,84.793,69.719L84.793,69.719z M56.725,52.048
		c0.186,0.276,0.386,0.593,0.599,0.963c1.646,2.852,21.408,13.591,27.467,13.594c0.144,0,0.271-0.01,0.39-0.024
		c1.591-0.226,4.291-2.409,4.902-5.326c0.515-2.438-0.724-4.665-3.579-6.431c-2.437-1.507-15.858-3.815-24.228-3.815
		c-3.495,0-4.41,0.424-4.557,0.51C57.351,51.73,57.02,51.905,56.725,52.048L56.725,52.048z"/>
</g>
</svg>
