<?xml version="1.0" encoding="utf-8"?>
<!-- Generator: Adobe Illustrator 14.0.0, SVG Export Plug-In . SVG Version: 6.00 Build 43363)  -->
<!DOCTYPE svg PUBLIC "-//W3C//DTD SVG 1.1//EN" "http://www.w3.org/Graphics/SVG/1.1/DTD/svg11.dtd">
<svg version="1.1" xmlns="http://www.w3.org/2000/svg" xmlns:xlink="http://www.w3.org/1999/xlink" x="0px" y="0px" width="100px"
	 height="100px" viewBox="0 0 100 100" enable-background="new 0 0 100 100" xml:space="preserve">
<g id="Bee">
	<circle cx="49.87" cy="34.207" r="12.456"/>
	<path fill="#FFFF00" stroke="#000000" d="M49.871,58.731c-7.883,0-14.275,2.257-14.275,12.719c0,10.463,6.392,25.177,14.275,25.177
		c7.885,0,14.275-14.714,14.275-25.177C64.146,60.988,57.756,58.731,49.871,58.731z"/>
	<path stroke="#000000" d="M61.679,80.325c-0.385,1.509-1.589,3.844-1.589,3.844s-3.178,3.358-10.31,3.358
		c-7.132,0-10.12-3.358-10.12-3.358s-0.964-1.538-1.542-3.795s-0.771-3.796-0.771-3.796s4.044,2.677,12.14,2.677
		s12.915-2.68,12.915-2.68S62.064,78.816,61.679,80.325z"/>
	<path stroke="#000000" d="M50.001,71.955c-10.075,0-13.043-1.864-13.043-1.864s-0.081-1.086,0.455-3.373s1.654-3.376,1.654-3.376
		s3.785,2.19,10.741,2.19s10.8-2.19,10.8-2.19s0.778,0.341,1.605,3.114c0.827,2.774,0.438,3.31,0.438,3.31
		S60.076,71.955,50.001,71.955z"/>
	<circle cx="49.74" cy="53.025" r="10.123"/>
	<g>
		<path d="M45.199,24.867h-3.115c0-9.445-10.362-17.129-23.099-17.129V4.624C33.439,4.624,45.199,13.705,45.199,24.867
			L45.199,24.867z"/>
	</g>
	<g>
		<path d="M57.917,25.775h-3.115c0-11.592,11.932-21.022,26.601-21.022v3.115C68.452,7.867,57.917,15.901,57.917,25.775
			L57.917,25.775z"/>
	</g>
	<circle cx="21.321" cy="6.57" r="2.985"/>
	<circle cx="79.328" cy="6.31" r="2.853"/>
</g>
<g id="Wings">
	<g id="Bottom_Right_Wing">
		<g id="Wing_Shape_3_">
			<path fill="#FFFFFF" fill-opacity="0.3" stroke="#000000" d="M51.764,53.333c0.563-1.919,3.014-0.92,6.541-1.125
				c3.584-0.208,6.023,1.663,12.084,3.25c7,1.833,13.131,0.067,17.313,1.979c10.208,4.667,4.396,3.916-0.063,9.375
				c-2.249,2.754-4.223,2.862-11.938,1.438c-4.063-0.75-5.625-2.75-11.25-4.938c-2.299-0.895-3.462-3.266-8.813-4.563
				C50.139,57.417,50.889,56.313,51.764,53.333z"/>
		</g>
		<g id="Veins_3_">
			<path fill="none" stroke="#000000" d="M51.764,53.333c0,0,20.375,4.792,27.125,9.292s7,4.25,9.375,3.375"/>
			<path fill="none" stroke="#000000" d="M77.639,56.375c0,0,5.625,5.875,5,8.625"/>
			<path fill="none" stroke="#000000" d="M73.514,59.75c0,0,1.416,3.75,2.791,5.625"/>
			<path fill="none" stroke="#000000" d="M82.68,69.125c0,0-8.791-7.125-15.541-4.625"/>
			<path fill="none" stroke="#000000" d="M51.139,55.125c0,0,20.625,5.25,19.5,8.625"/>
			<line stroke="#000000" x1="61.764" y1="61.875" x2="63.014" y2="59.125"/>
			<path fill="none" stroke="#000000" d="M80.732,60.141c0,0,7.719,6.297,7.844,3.297s-6.453-7.344-6.328-6.969"/>
		</g>
	</g>
	<g id="Bottom_Left_Wing">
		<g id="Wing_Shape_1_">
			<path fill="#FFFFFF" fill-opacity="0.3" stroke="#000000" d="M49.75,53.333c-0.563-1.919-3.014-0.92-6.542-1.125
				c-3.583-0.208-6.023,1.663-12.083,3.25c-7,1.833-13.13,0.067-17.313,1.979c-10.208,4.667-4.396,3.916,0.063,9.375
				c2.249,2.754,4.222,2.862,11.938,1.438c4.063-0.75,5.625-2.75,11.25-4.938c2.299-0.895,3.462-3.266,8.813-4.563
				C51.375,57.417,50.625,56.313,49.75,53.333z"/>
		</g>
		<g id="Veins_2_">
			<path fill="none" stroke="#000000" d="M49.75,53.333c0,0-20.375,4.792-27.125,9.292s-7,4.25-9.375,3.375"/>
			<path fill="none" stroke="#000000" d="M23.875,56.375c0,0-5.625,5.875-5,8.625"/>
			<path fill="none" stroke="#000000" d="M28,59.75c0,0-1.417,3.75-2.792,5.625"/>
			<path fill="none" stroke="#000000" d="M18.833,69.125c0,0,8.792-7.125,15.542-4.625"/>
			<path fill="none" stroke="#000000" d="M50.375,55.125c0,0-20.625,5.25-19.5,8.625"/>
			<line stroke="#000000" x1="39.75" y1="61.875" x2="38.5" y2="59.125"/>
			<path fill="none" stroke="#000000" d="M20.781,60.141c0,0-7.719,6.297-7.844,3.297s6.453-7.344,6.328-6.969"/>
		</g>
	</g>
	<g id="Top_Right_Wing">
		<g id="Wing_Shape_2_">
			<path fill="#F2F2F2" fill-opacity="0.3" stroke="#000000" d="M51.322,54.416c-0.992-0.561,5.805-4.837,12.834-10.166
				c4.562-3.458,8.944-8.334,13.166-10.583c8.917-4.75,24.667-3.75,18.584,3.833c0,0-3.092,8.069-6.5,10.417
				c-3.75,2.583-11.239,0.919-21.334,4.333C62.405,54.166,53.239,55.5,51.322,54.416z"/>
		</g>
		<g id="Veins_1_">
			<g display="none">
				<path display="inline" d="M85.695,69.719c-6.965,0-27.786-11.037-30.169-15.154c-0.591-1.027-1.022-1.51-1.281-1.797
					c-0.261-0.294-0.809-0.902-0.571-1.782c0.235-0.881,1.015-1.133,1.389-1.255c0.366-0.119,0.98-0.318,2.006-0.911
					c0.69-0.398,2.074-0.926,6.111-0.926c7.92,0,22.429,2.156,25.867,4.28c5.413,3.351,5.448,7.529,4.987,9.723
					c-0.868,4.136-4.589,7.354-7.521,7.768C86.264,69.7,85.99,69.719,85.695,69.719L85.695,69.719z M63.18,51.008
					c-3.494,0-4.41,0.424-4.555,0.508c-0.368,0.213-0.698,0.389-0.996,0.532c0.185,0.274,0.384,0.592,0.595,0.96
					c1.651,2.854,21.416,13.597,27.472,13.597c0.14,0,0.269-0.01,0.386-0.024c1.591-0.226,4.293-2.409,4.906-5.322
					c0.513-2.442-0.726-4.669-3.578-6.435C84.97,53.316,71.55,51.008,63.18,51.008L63.18,51.008z"/>
			</g>
			<g display="none">
				<path display="inline" d="M42.241,55.787c-8.769,0-32.615-5.191-37.306-10.342c-2.463-2.71-3.038-8.154-1.277-12.135
					c1.688-3.817,5.171-5.92,9.806-5.92c0.77,0,1.591,0.058,2.464,0.18c5.584,0.781,30.338,15.852,32.476,21.629
					c0.516,1.394,0.952,2.083,1.212,2.494c0.259,0.41,0.691,1.096,0.306,1.938s-1.189,0.961-1.67,1.031
					c-0.48,0.069-1.289,0.188-2.686,0.705c-0.76,0.283-1.849,0.42-3.321,0.42C42.244,55.787,42.244,55.787,42.241,55.787
					L42.241,55.787z M46.171,51.909c-0.213-0.439-0.444-0.975-0.688-1.63c-1.548-4.184-24.979-18.925-29.988-19.626
					c-4.54-0.637-7.591,0.757-8.99,3.917c-1.356,3.069-0.729,7.167,0.736,8.779c3.497,3.843,25.639,9.323,35.003,9.323
					c1.473,0,2.06-0.158,2.242-0.226C45.137,52.206,45.69,52.035,46.171,51.909L46.171,51.909z"/>
			</g>
			<g display="none">
				<path display="inline" d="M16.113,69.719c-0.296,0-0.566-0.019-0.818-0.055c-2.929-0.414-6.648-3.632-7.519-7.768
					c-0.462-2.193-0.426-6.372,4.988-9.723c3.437-2.124,17.947-4.28,25.866-4.28c4.036,0,5.423,0.528,6.113,0.928
					c1.025,0.591,1.637,0.791,2.005,0.909c0.374,0.122,1.152,0.374,1.388,1.255c0.237,0.88-0.31,1.49-0.573,1.782
					c-0.258,0.289-0.69,0.77-1.283,1.799c-2.375,4.112-23.196,15.149-30.164,15.152C16.116,69.719,16.116,69.719,16.113,69.719
					L16.113,69.719z M44.182,52.048c-0.295-0.143-0.626-0.317-0.994-0.53c-0.146-0.086-1.062-0.51-4.557-0.51
					c-8.369,0-21.791,2.309-24.228,3.815c-2.855,1.766-4.094,3.992-3.579,6.431c0.611,2.917,3.312,5.101,4.902,5.326
					c0.119,0.015,0.246,0.024,0.39,0.024c6.059-0.003,25.821-10.742,27.467-13.594C43.796,52.641,43.996,52.324,44.182,52.048
					L44.182,52.048z"/>
			</g>
			<line fill="none" stroke="#000000" x1="79.114" y1="32.875" x2="74.489" y2="42.125"/>
			<path fill="none" stroke="#000000" d="M77.031,36.875c0,0,25.083-2.833-16.417,9.917"/>
			<path fill="none" stroke="#000000" d="M82.447,36.583c0,0,8.167-5.208-0.958-4.583"/>
			<path fill="none" stroke="#000000" d="M82.364,39.125c0,0,3.667-2.625,7.167,0.25s3.936,2.876,5.791-0.542"/>
			<path fill="none" stroke="#000000" d="M96.906,33.583c0,0-3.295,3.795-10.459,4.458"/>
			<path fill="none" stroke="#000000" d="M78.406,40.792c0,0,1.681,0.911,3.134,2.102c1.982,1.625,4.381,4.595,2.866,6.398"/>
			<path fill="none" stroke="#000000" d="M89.531,39.375c-1.438,0.438,0.348,1.978,0.602,3.079s-1.025,1.762-8.593,0.44"/>
			<path fill="none" stroke="#000000" d="M88.281,43.667c1.375,3,3.833,0.542,4.333,0.667"/>
			<path fill="none" stroke="#000000" d="M54.239,51.542c0,0,43.25-16.25,10.75,1.625"/>
			<path fill="none" stroke="#000000" d="M81.406,49.375c0,0,0.291-7.458-5.209-4.458"/>
			<path fill="none" stroke="#000000" d="M67.739,44.042c0.125,0.5,0.875,1,0.25,2.75"/>
		</g>
	</g>
	<g id="Top_Left_Wing_1_">
		<g id="Wing_Shape">
			<path fill="#F2F2F2" fill-opacity="0.3" stroke="#000000" d="M49.583,54.416c0.993-0.561-5.804-4.837-12.833-10.166
				c-4.562-3.458-8.944-8.334-13.167-10.583C14.667,28.917-1.083,29.917,5,37.5c0,0,3.092,8.069,6.5,10.417
				c3.75,2.583,11.239,0.919,21.333,4.333C38.5,54.166,47.667,55.5,49.583,54.416z"/>
		</g>
		<g id="Veins">
			<line fill="none" stroke="#000000" x1="21.792" y1="32.875" x2="26.417" y2="42.125"/>
			<path fill="none" stroke="#000000" d="M23.875,36.875c0,0-25.083-2.833,16.417,9.917"/>
			<path fill="none" stroke="#000000" d="M18.458,36.583c0,0-8.167-5.208,0.958-4.583"/>
			<path fill="none" stroke="#000000" d="M18.542,39.125c0,0-3.667-2.625-7.167,0.25s-3.936,2.876-5.792-0.542"/>
			<path fill="none" stroke="#000000" d="M4,33.583c0,0,3.294,3.795,10.458,4.458"/>
			<path fill="none" stroke="#000000" d="M22.5,40.792c0,0-1.681,0.911-3.134,2.102c-1.982,1.625-4.38,4.595-2.866,6.398"/>
			<path fill="none" stroke="#000000" d="M11.375,39.375c1.438,0.438-0.348,1.978-0.602,3.079c-0.254,1.101,1.025,1.762,8.592,0.44"
				/>
			<path fill="none" stroke="#000000" d="M12.625,43.667c-1.375,3-3.833,0.542-4.333,0.667"/>
			<path fill="none" stroke="#000000" d="M46.667,51.542c0,0-43.25-16.25-10.75,1.625"/>
			<path fill="none" stroke="#000000" d="M19.5,49.375c0,0-0.292-7.458,5.208-4.458"/>
			<path fill="none" stroke="#000000" d="M33.167,44.042c-0.125,0.5-0.875,1-0.25,2.75"/>
		</g>
	</g>
</g>
</svg>
