<?xml version="1.0" encoding="utf-8"?>
<!-- Generator: Adobe Illustrator 14.0.0, SVG Export Plug-In . SVG Version: 6.00 Build 43363)  -->
<!DOCTYPE svg PUBLIC "-//W3C//DTD SVG 1.1//EN" "http://www.w3.org/Graphics/SVG/1.1/DTD/svg11.dtd">
<svg version="1.1" id="Layer_1" xmlns="http://www.w3.org/2000/svg" xmlns:xlink="http://www.w3.org/1999/xlink" x="0px" y="0px"
	 width="32px" height="32px" viewBox="0 0 32 32" enable-background="new 0 0 32 32" xml:space="preserve">
<g id="Bee" display="none">
	<path display="inline" fill="none" stroke="#000000" d="M20.52,8.712c0-6.794-4.528-4.529-4.528-4.529s-4.529-2.265-4.529,4.529
		c0,0,0,2.265,4.529,2.265C20.52,10.977,20.52,8.712,20.52,8.712z"/>
	<path display="inline" fill="none" stroke="#000000" d="M20.52,11.298c0,0,4.529,0,0,9.06c0,0,0,4.528-4.528,4.528
		c-4.529,0-4.529-4.528-4.529-4.528c-4.53-9.06,0-9.06,0-9.06S15.99,13.563,20.52,11.298z"/>
	<path display="inline" fill="none" stroke="#000000" d="M15.99,31.68c0-6.166-2.979-7.775-2.979-7.775"/>
	<path display="inline" fill="none" stroke="#000000" d="M15.99,31.68c0-6.166,2.979-7.775,2.979-7.775"/>
	<path display="inline" fill="none" stroke="#000000" d="M9.504,13.259c0,0,1.85,2.247,6.486,2.247"/>
	<path display="inline" fill="none" stroke="#000000" d="M9.623,15.506c0,0,0.676,2.311,6.438,2.266"/>
	<path display="inline" fill="none" stroke="#000000" d="M10.815,18.993c0,0,0.229,1.085,5.28,1.147"/>
	<path display="inline" fill="none" stroke="#000000" d="M11.566,21.245c0,0,0.071,1.055,4.424,1.091"/>
	<path display="inline" fill="none" stroke="#000000" d="M22.458,13.259c0,0-1.849,2.247-6.483,2.247"/>
	<path display="inline" fill="none" stroke="#000000" d="M22.34,15.506c0,0-0.668,2.311-6.365,2.266"/>
	<path display="inline" fill="none" stroke="#000000" d="M21.146,18.993c0,0.001-0.226,1.085-5.244,1.147"/>
	<path display="inline" fill="none" stroke="#000000" d="M20.398,21.245c0,0-0.072,1.055-4.423,1.091"/>
	<path display="inline" fill="none" stroke="#000000" d="M21.424,12.127c0.317-0.704,9.633-11.761,9.901-5.35
		c0.272,6.511-6.796,10.286-9.593,9.366c7.526,2.476,8.062,8.391,6.146,9.837c-2.904,2.196-6.416-4.813-7.186-6.983"/>
	<path display="inline" fill="none" stroke="#000000" d="M10.731,12.127c-0.317-0.704-9.632-11.761-9.902-5.35
		c-0.272,6.511,6.795,10.286,9.593,9.366c-7.528,2.476-8.062,8.391-6.147,9.837c2.906,2.196,6.416-4.813,7.187-6.983"/>
</g>
<g id="Egg" display="none">
	<path display="inline" stroke="#000000" d="M19.416,12.083c0,4.821,3.002,17.667-1.416,17.667s-9.292-9.512-9.292-14.333
		C8.708,10.596,9.707,1,14.125,1S19.416,7.263,19.416,12.083z"/>
</g>
<g id="Larva" display="none">
	<path display="inline" fill="none" stroke="#000000" d="M22.208,3.666c0.459,1.833-2.312,1.798-4.25,2.417
		C16,6.708,14.701,7.704,14.042,7.375C12.708,6.708,13,4.625,16.542,3.5C19.229,2.646,21.625,2.5,22.208,3.666z"/>
	<path display="inline" fill="none" stroke="#000000" d="M24.333,11.791c0,0.656-2.472,0.208-5.083,0.208s-7.583,0.822-7.583,0.167
		c0-0.655-0.292-1,6.125-2.458C26.287,8.542,24.333,11.135,24.333,11.791z"/>
	<path display="inline" fill="none" stroke="#000000" d="M25.417,15.708c-0.125,2.5-2.167,0.5-6.042,0.167
		c-3.668-0.315-9.083,0.5-8.75-1.375c0.121-0.68,1.961-1.556,5.625-1.917C27.667,11.458,25.451,15.019,25.417,15.708z"/>
	<path display="inline" fill="none" stroke="#000000" d="M24.75,20.333c-0.643,1.077-1.458,0.333-6.833-0.333
		c-5.028,0-8.667,0.295-8.667-0.959s0.508-3.498,7.917-3.125C24.625,16.291,26.416,17.541,24.75,20.333z"/>
	<path display="inline" fill="none" stroke="#000000" d="M23.625,24.041c-1.605,1.771-2.154,0.167-7.792,0.167
		c-5.417-0.625-7.917,0.858-7.917-1.167c0-2.023,2.5-3.333,10.5-2.666C24.007,20.841,25.25,22.249,23.625,24.041z"/>
	<path display="inline" fill="none" stroke="#000000" d="M22.958,26.291c0,1.45-2.423,2.375-7.521,2.375
		c-5.097,0-7.646-1.008-7.646-2.458s1.708-2.042,7.75-1.917C21.583,24.25,22.958,24.841,22.958,26.291z"/>
	<path display="inline" fill="none" stroke="#000000" d="M19.333,29.416c0,0.736-5.375,1.459-7.625,1
		C9.712,30.009,9.542,29.736,9.542,29s2.255-0.417,4.292-0.417C15.87,28.583,19.333,28.68,19.333,29.416z"/>
	<path display="inline" fill="none" stroke="#000000" d="M23.417,6.541c0.75,2.958-0.459,2.333-3.167,2.667
		c-1.953,0.58-7.119,1.674-7.417,1c-0.625-1.417,1.458-2.292,5.083-3.417S23.236,5.827,23.417,6.541z"/>
	<path display="inline" fill="none" stroke="#000000" d="M20.208,1.791c0.295,0.675-2.354,0.975-4.333,1.458
		C14,3.708,13.827,4.195,13.583,3.5c-0.292-0.833-0.009-1.262,1.958-1.792C17.708,1.125,19.917,1.125,20.208,1.791z"/>
	<g id="Layer_4" display="inline">
	</g>
</g>
<g id="Pollen">
	<g>
		<polygon points="15.284,28.122 12.626,30.326 11.244,27.039 9.426,25.99 6.147,26.586 6.468,23.032 5.419,21.214 2.408,20.107 
			4.336,17.174 4.336,15.075 2.408,12.626 5.419,11.035 6.468,9.217 6.147,6.147 9.426,6.259 11.244,5.21 12.626,2.408 
			15.284,4.127 17.384,4.127 20.107,2.408 21.423,5.21 23.241,6.259 26.586,6.147 26.199,9.217 27.248,11.035 30.326,12.626 
			28.331,15.075 28.331,17.174 30.326,20.107 27.248,21.214 26.199,23.032 26.586,26.586 23.241,25.99 21.423,27.039 20.107,30.326 
			17.384,28.122 		"/>
		<path d="M12.426,31.142l-1.578-3.754l-1.514-0.873L5.59,27.195l0.366-4.051l-0.879-1.523l-3.432-1.262l2.191-3.335v-1.776
			l-2.191-2.785l3.414-1.803l0.896-1.553L5.59,5.628L9.3,5.754l1.563-0.902l1.563-3.169l3.006,1.943h1.808l3.08-1.944l1.489,3.172
			l1.559,0.899l3.788-0.127l-0.439,3.485l0.892,1.546l3.495,1.806l-2.271,2.789v1.767l2.271,3.34l-3.513,1.263l-0.876,1.519
			l0.441,4.055l-3.822-0.681l-1.511,0.871l-1.503,3.756l-3.112-2.52h-1.743L12.426,31.142L12.426,31.142z M15.104,27.622h2.457
			l2.335,1.889l1.128-2.818l2.126-1.227l2.867,0.511l-0.332-3.053l1.222-2.118l2.644-0.95l-1.719-2.527v-2.431l1.719-2.11
			l-2.661-1.375l-1.206-2.091l0.334-2.655l-2.901,0.097l-2.078-1.199l-1.142-2.431l-2.367,1.494h-2.392l-2.311-1.494l-1.201,2.435
			L9.552,6.763L6.704,6.667l0.278,2.66L5.78,11.41l-2.608,1.378l1.664,2.114v2.421l-1.664,2.532l2.59,0.951L6.98,22.92l-0.276,3.057
			l2.813-0.511l2.123,1.225l1.186,2.82L15.104,27.622L15.104,27.622z"/>
	</g>
</g>
</svg>
