<?xml version="1.0" encoding="utf-8"?>
<!-- Generator: Adobe Illustrator 14.0.0, SVG Export Plug-In . SVG Version: 6.00 Build 43363)  -->
<!DOCTYPE svg PUBLIC "-//W3C//DTD SVG 1.1//EN" "http://www.w3.org/Graphics/SVG/1.1/DTD/svg11.dtd">
<svg version="1.1" id="Layer_1" xmlns="http://www.w3.org/2000/svg" xmlns:xlink="http://www.w3.org/1999/xlink" x="0px" y="0px"
	 width="32px" height="32px" viewBox="0 0 32 32" enable-background="new 0 0 32 32" xml:space="preserve">
<g>
	<path d="M15.954,10.62c-5.01,0-5.068-2.7-5.068-2.815c0-4.724,2.182-5.429,3.482-5.429c0.672,0,1.266,0.186,1.586,0.311
		c0.321-0.125,0.914-0.311,1.586-0.311c1.3,0,3.483,0.705,3.483,5.429C21.023,7.919,20.965,10.62,15.954,10.62L15.954,10.62z
		 M14.368,3.502c-1.563,0-2.356,1.447-2.356,4.302c0.003,0.056,0.13,1.689,3.942,1.689c3.813,0,3.938-1.633,3.942-1.703
		c0-2.841-0.793-4.289-2.355-4.289c-0.713,0-1.33,0.298-1.336,0.302l-0.249,0.122l-0.251-0.121
		C15.697,3.8,15.081,3.502,14.368,3.502L14.368,3.502z"/>
</g>
<g>
	<path d="M15.954,24.455c-3.908,0-5.013-3.149-5.066-4.934c-1.996-4.025-2.503-6.883-1.508-8.494
		c0.742-1.201,2.015-1.215,2.069-1.215h0.132l0.119,0.059c0.02,0.01,1.928,0.942,4.421,0.942c0,0,0,0,0,0
		c1.462,0,2.836-0.317,4.085-0.941l0.12-0.06h0.134c0.052,0,1.326,0.014,2.067,1.215c0.996,1.611,0.488,4.468-1.506,8.494
		C20.965,21.306,19.861,24.455,15.954,24.455L15.954,24.455z M11.346,10.95c-0.212,0.032-0.703,0.163-1.019,0.688
		c-0.434,0.72-0.798,2.651,1.625,7.498l0.059,0.117l0,0.133c0.001,0.161,0.066,3.943,3.942,3.943c3.876,0,3.94-3.782,3.942-3.943
		v-0.132l0.061-0.118c2.436-4.871,2.057-6.798,1.614-7.514c-0.313-0.507-0.792-0.637-1.004-0.669
		c-1.37,0.657-2.862,0.989-4.445,0.989c0,0,0,0,0,0C13.738,11.94,11.876,11.188,11.346,10.95L11.346,10.95z"/>
</g>
<g>
	<path d="M16.517,30.649h-1.126c0-5.666-2.646-7.226-2.671-7.242l0.54-0.987C13.392,22.49,16.517,24.255,16.517,30.649
		L16.517,30.649z"/>
</g>
<g>
	<path d="M16.517,30.649h-1.126c0-6.395,3.126-8.159,3.259-8.229l0.534,0.989C19.162,23.424,16.517,24.983,16.517,30.649
		L16.517,30.649z"/>
</g>
<g>
	<path d="M15.954,15.125c-4.822,0-6.803-2.34-6.886-2.44l0.87-0.716l-0.435,0.358l0.433-0.361c0.018,0.02,1.767,2.032,6.019,2.032
		V15.125L15.954,15.125z"/>
</g>
<g>
	<path d="M15.861,17.379c-5.832,0-6.701-2.384-6.781-2.659l1.077-0.332c0.006,0.02,0.788,1.89,5.863,1.864l0.009,1.125
		C15.973,17.377,15.917,17.379,15.861,17.379L15.861,17.379z"/>
</g>
<g>
	<path d="M16.053,19.736c-4.764-0.061-5.676-1.022-5.796-1.59l1.101-0.233c-0.016-0.082-0.044-0.119-0.045-0.12
		c0.008,0.009,0.626,0.763,4.753,0.816L16.053,19.736L16.053,19.736z"/>
</g>
<g>
	<path d="M15.95,21.919c-4.222-0.035-4.918-1.023-4.958-1.61l1.124-0.077c-0.007-0.094-0.034-0.137-0.034-0.137
		c0.005,0.007,0.486,0.669,3.876,0.697L15.95,21.919L15.95,21.919z"/>
</g>
<g>
	<path d="M15.939,15.125v-1.126c4.251,0,5.999-2.012,6.016-2.032l0.866,0.718C22.741,12.785,20.759,15.125,15.939,15.125
		L15.939,15.125z"/>
</g>
<g>
	<path d="M16.1,17.379c-0.055,0-0.11-0.002-0.166-0.002l0.009-1.125c5.053,0.021,5.784-1.842,5.79-1.862l1.077,0.329
		C22.731,14.993,21.871,17.379,16.1,17.379L16.1,17.379z"/>
</g>
<g>
	<path d="M15.876,19.736l-0.015-1.127c4.1-0.054,4.711-0.805,4.716-0.813c-0.02,0.025-0.057,0.114-0.057,0.234h1.127
		C21.647,18.521,21.084,19.669,15.876,19.736L15.876,19.736z"/>
</g>
<g>
	<path d="M15.943,21.919l-0.009-1.127c3.392-0.028,3.871-0.69,3.876-0.697c0,0-0.028,0.042-0.035,0.138l1.124,0.075
		C20.86,20.896,20.165,21.884,15.943,21.919L15.943,21.919z"/>
</g>
<g>
	<path d="M26.602,25.962c-0.247,0-0.497-0.037-0.749-0.114c-2.831-0.85-5.257-6.23-5.752-7.625l1.063-0.377
		c0.727,2.05,3.017,6.325,5.013,6.923c0.466,0.142,0.865,0.064,1.264-0.236c0.585-0.442,0.841-1.468,0.649-2.611
		c-0.165-0.996-1.132-4.392-6.601-6.191l0,0l0,0l0.353-1.069c1.043,0.341,3.179-0.118,5.225-1.666
		c2.386-1.805,3.691-4.39,3.576-7.092c-0.023-0.592-0.146-1.32-0.589-1.424c-2.002-0.453-7.739,6.149-8.188,6.966l-1.021-0.477
		c0.283-0.63,6.474-8.162,9.397-7.601c0.655,0.127,1.449,0.66,1.526,2.487c0.13,3.077-1.337,6.007-4.022,8.038
		c-1.13,0.855-2.361,1.464-3.507,1.772c3.979,2.101,4.797,5.089,4.96,6.069c0.263,1.578-0.152,2.992-1.08,3.694
		C27.652,25.781,27.138,25.962,26.602,25.962L26.602,25.962z"/>
</g>
<g>
	<path d="M5.48,25.962c-0.537,0-1.052-0.181-1.519-0.532c-0.928-0.702-1.342-2.116-1.08-3.694c0.164-0.98,0.983-3.969,4.962-6.069
		c-1.146-0.308-2.377-0.917-3.507-1.772c-2.687-2.031-4.152-4.96-4.023-8.038c0.076-1.827,0.872-2.36,1.526-2.487
		c2.9-0.557,9.114,6.971,9.397,7.601l-1.02,0.477C9.768,10.628,3.981,4.02,2.029,4.479C1.585,4.583,1.463,5.311,1.438,5.903
		c-0.114,2.702,1.19,5.287,3.577,7.092c2.046,1.548,4.177,2.007,5.225,1.666l0.352,1.069c-5.469,1.799-6.434,5.195-6.6,6.191
		c-0.19,1.144,0.064,2.169,0.648,2.611c0.399,0.299,0.8,0.376,1.264,0.236c1.998-0.598,4.287-4.873,5.013-6.923l1.062,0.377
		c-0.494,1.395-2.92,6.775-5.751,7.625C5.976,25.925,5.726,25.962,5.48,25.962L5.48,25.962z"/>
</g>
</svg>
