<?xml version="1.0" encoding="utf-8"?>
<!-- Generator: Adobe Illustrator 14.0.0, SVG Export Plug-In . SVG Version: 6.00 Build 43363)  -->
<!DOCTYPE svg PUBLIC "-//W3C//DTD SVG 1.1//EN" "http://www.w3.org/Graphics/SVG/1.1/DTD/svg11.dtd">
<svg version="1.1" id="Layer_1" xmlns="http://www.w3.org/2000/svg" xmlns:xlink="http://www.w3.org/1999/xlink" x="0px" y="0px"
	 width="32px" height="32px" viewBox="0 0 32 32" enable-background="new 0 0 32 32" xml:space="preserve">
<g>
	<path d="M16,12.5c-4.449,0-4.5-2.398-4.5-2.5c0-4.194,1.937-4.82,3.092-4.82c0.597,0,1.124,0.166,1.408,0.276
		c0.285-0.111,0.812-0.276,1.408-0.276c1.154,0,3.092,0.626,3.092,4.82C20.5,10.102,20.449,12.5,16,12.5L16,12.5z M14.592,6.18
		C13.204,6.18,12.5,7.465,12.5,10c0.003,0.05,0.115,1.5,3.5,1.5s3.497-1.45,3.5-1.512c0-2.523-0.704-3.808-2.092-3.808
		c-0.633,0-1.181,0.265-1.186,0.268l-0.221,0.108l-0.224-0.108C15.772,6.445,15.225,6.18,14.592,6.18L14.592,6.18z"/>
</g>
<g>
	<path d="M16,24.783c-3.469,0-4.451-2.796-4.498-4.379c-1.772-3.575-2.223-6.112-1.339-7.542c0.659-1.067,1.79-1.079,1.837-1.079
		h0.117l0.105,0.052c0.017,0.009,1.712,0.836,3.925,0.836c0,0,0,0,0,0c1.298,0,2.519-0.281,3.628-0.836l0.105-0.053H20
		c0.048,0,1.178,0.012,1.837,1.079c0.884,1.43,0.434,3.967-1.339,7.542C20.45,21.987,19.469,24.783,16,24.783L16,24.783z
		 M11.909,12.793c-0.188,0.029-0.625,0.145-0.905,0.61c-0.385,0.639-0.708,2.354,1.443,6.656l0.052,0.104l0,0.118
		c0.001,0.143,0.059,3.501,3.5,3.501s3.499-3.358,3.5-3.501l0.001-0.117l0.052-0.105c2.162-4.324,1.826-6.036,1.434-6.671
		c-0.277-0.45-0.703-0.565-0.891-0.595c-1.216,0.583-2.542,0.878-3.947,0.878c0,0,0,0,0,0
		C14.033,13.672,12.379,13.004,11.909,12.793L11.909,12.793z"/>
</g>
<g>
	<path d="M16.5,30.283h-1c0-5.03-2.349-6.416-2.372-6.43l0.479-0.877C13.726,23.04,16.5,24.605,16.5,30.283L16.5,30.283z"/>
</g>
<g>
	<path d="M16.5,30.283h-1c0-5.678,2.775-7.243,2.894-7.307l0.475,0.879C18.849,23.867,16.5,25.253,16.5,30.283L16.5,30.283z"/>
</g>
<g>
	<path d="M16,16.5c-4.281,0-6.041-2.078-6.114-2.167l0.772-0.636l-0.386,0.318l0.384-0.32C10.672,13.713,12.225,15.5,16,15.5V16.5
		L16,16.5z"/>
</g>
<g>
	<path d="M15.918,18.501c-5.178,0-5.949-2.117-6.021-2.36l0.956-0.295c0.006,0.018,0.699,1.678,5.206,1.654l0.008,1
		C16.017,18.5,15.967,18.501,15.918,18.501L15.918,18.501z"/>
</g>
<g>
	<path d="M16.087,20.594c-4.229-0.054-5.04-0.907-5.146-1.411l0.979-0.207c-0.015-0.072-0.039-0.105-0.04-0.106
		c0.006,0.009,0.555,0.678,4.22,0.725L16.087,20.594L16.087,20.594z"/>
</g>
<g>
	<path d="M15.996,22.531c-3.748-0.03-4.367-0.908-4.402-1.429l0.998-0.068c-0.006-0.083-0.03-0.121-0.03-0.121
		c0.004,0.006,0.432,0.594,3.442,0.618L15.996,22.531L15.996,22.531z"/>
</g>
<g>
	<path d="M15.987,16.5v-1c3.775,0,5.327-1.787,5.342-1.805l0.77,0.638C22.026,14.422,20.267,16.5,15.987,16.5L15.987,16.5z"/>
</g>
<g>
	<path d="M16.13,18.501c-0.049,0-0.098-0.001-0.147-0.001l0.008-1c4.486,0.019,5.134-1.635,5.14-1.652l0.957,0.292
		C22.018,16.383,21.255,18.501,16.13,18.501L16.13,18.501z"/>
</g>
<g>
	<path d="M15.931,20.594l-0.013-1c3.64-0.047,4.182-0.715,4.187-0.722c-0.017,0.021-0.05,0.101-0.05,0.207h1
		C21.055,19.515,20.556,20.534,15.931,20.594L15.931,20.594z"/>
</g>
<g>
	<path d="M15.991,22.531l-0.008-1c3.011-0.024,3.437-0.612,3.441-0.618c0,0-0.024,0.037-0.03,0.122l0.998,0.066
		C20.356,21.623,19.738,22.501,15.991,22.531L15.991,22.531z"/>
</g>
<g>
	<path d="M25.453,26.121c-0.218,0-0.44-0.033-0.664-0.101c-2.514-0.754-4.667-5.532-5.106-6.771l0.943-0.334
		c0.645,1.819,2.677,5.615,4.45,6.146c0.413,0.125,0.768,0.058,1.122-0.211c0.519-0.393,0.745-1.302,0.576-2.317
		c-0.147-0.886-1.005-3.899-5.859-5.497l0,0l0,0l0.313-0.95c0.926,0.303,2.821-0.104,4.639-1.478
		c2.119-1.603,3.277-3.898,3.176-6.297c-0.021-0.526-0.131-1.172-0.524-1.264c-1.776-0.402-6.871,5.46-7.269,6.185l-0.906-0.423
		c0.251-0.56,5.748-7.247,8.344-6.749c0.581,0.112,1.287,0.586,1.355,2.208c0.114,2.732-1.188,5.333-3.572,7.136
		c-1.003,0.759-2.097,1.3-3.114,1.574c3.533,1.864,4.261,4.518,4.405,5.39c0.232,1.399-0.135,2.656-0.959,3.278
		C26.388,25.962,25.93,26.121,25.453,26.121L25.453,26.121z"/>
</g>
<g>
	<path d="M6.701,26.121c-0.477,0-0.934-0.159-1.348-0.473c-0.824-0.622-1.192-1.879-0.959-3.278c0.145-0.872,0.873-3.525,4.406-5.39
		c-1.018-0.274-2.111-0.815-3.115-1.574C3.3,13.604,1.998,11.002,2.113,8.271c0.068-1.623,0.774-2.096,1.355-2.208
		c2.576-0.494,8.092,6.189,8.344,6.749l-0.906,0.423c-0.398-0.726-5.536-6.593-7.269-6.185C3.243,7.141,3.134,7.787,3.112,8.313
		c-0.101,2.399,1.057,4.694,3.176,6.297c1.817,1.375,3.709,1.782,4.639,1.478l0.313,0.95c-4.855,1.598-5.712,4.611-5.859,5.497
		c-0.169,1.016,0.057,1.925,0.576,2.317c0.354,0.267,0.71,0.335,1.123,0.211c1.774-0.531,3.806-4.327,4.451-6.146l0.942,0.334
		c-0.439,1.238-2.592,6.017-5.106,6.771C7.141,26.088,6.919,26.121,6.701,26.121L6.701,26.121z"/>
</g>
</svg>
