<?xml version="1.0" encoding="utf-8"?>
<!-- Generator: Adobe Illustrator 14.0.0, SVG Export Plug-In . SVG Version: 6.00 Build 43363)  -->
<!DOCTYPE svg PUBLIC "-//W3C//DTD SVG 1.1//EN" "http://www.w3.org/Graphics/SVG/1.1/DTD/svg11.dtd">
<svg version="1.1" id="Layer_1" xmlns="http://www.w3.org/2000/svg" xmlns:xlink="http://www.w3.org/1999/xlink" x="0px" y="0px"
	 width="32px" height="32px" viewBox="0 0 32 32" enable-background="new 0 0 32 32" xml:space="preserve">
<path fill="none" d="M20,10c0-6-4-4-4-4s-4-2-4,4c0,0,0,2,4,2S20,10,20,10z"/>
<path fill="none" d="M20,12.284c0,0,4,0,0,8c0,0,0,4-4,4s-4-4-4-4c-4-8,0-8,0-8S16,14.284,20,12.284z"/>
<path fill="none" d="M16,30.283c0-5.445-2.63-6.867-2.63-6.867"/>
<path fill="none" d="M16,30.283c0-5.445,2.631-6.867,2.631-6.867"/>
<path fill="none" d="M10.272,14.016c0,0,1.634,1.984,5.728,1.984"/>
<path fill="none" d="M10.377,16c0,0,0.598,2.039,5.685,2"/>
<path fill="none" d="M11.431,19.079c0,0,0.202,0.958,4.663,1.015"/>
<path fill="none" d="M12.093,21.068c0,0,0.063,0.932,3.907,0.963"/>
<path fill="none" d="M21.713,14.016c0,0-1.633,1.984-5.726,1.984"/>
<path fill="none" d="M21.607,16c0,0-0.59,2.039-5.621,2"/>
<path fill="none" d="M20.555,19.079c0,0.001-0.199,0.958-4.63,1.015"/>
<path fill="none" d="M19.893,21.068c0,0-0.063,0.932-3.906,0.963"/>
<path fill="none" d="M20.799,13.016c0.279-0.621,8.506-10.386,8.743-4.724c0.241,5.75-6,9.083-8.471,8.271
	c6.647,2.187,7.119,7.41,5.429,8.688c-2.565,1.94-5.666-4.25-6.346-6.167"/>
<path fill="none" d="M11.355,13.016C11.076,12.395,2.85,2.629,2.612,8.292c-0.241,5.75,6,9.083,8.471,8.271
	c-6.647,2.187-7.119,7.41-5.429,8.688C8.22,27.19,11.32,21,12,19.083"/>
</svg>
