<?xml version="1.0" encoding="utf-8"?>
<!-- Generator: Adobe Illustrator 14.0.0, SVG Export Plug-In . SVG Version: 6.00 Build 43363)  -->
<!DOCTYPE svg PUBLIC "-//W3C//DTD SVG 1.1//EN" "http://www.w3.org/Graphics/SVG/1.1/DTD/svg11.dtd">
<svg version="1.1" id="Layer_1" xmlns="http://www.w3.org/2000/svg" xmlns:xlink="http://www.w3.org/1999/xlink" x="0px" y="0px"
	 width="32px" height="32px" viewBox="0 0 32 32" enable-background="new 0 0 32 32" xml:space="preserve">
<g id="Bee" display="none">
	<path display="inline" fill="none" stroke="#000000" d="M20.52,8.712c0-6.794-4.528-4.529-4.528-4.529s-4.529-2.265-4.529,4.529
		c0,0,0,2.265,4.529,2.265C20.52,10.977,20.52,8.712,20.52,8.712z"/>
	<path display="inline" fill="none" stroke="#000000" d="M20.52,11.298c0,0,4.529,0,0,9.06c0,0,0,4.528-4.528,4.528
		c-4.529,0-4.529-4.528-4.529-4.528c-4.53-9.06,0-9.06,0-9.06S15.99,13.563,20.52,11.298z"/>
	<path display="inline" fill="none" stroke="#000000" d="M15.99,31.68c0-6.166-2.979-7.775-2.979-7.775"/>
	<path display="inline" fill="none" stroke="#000000" d="M15.99,31.68c0-6.166,2.979-7.775,2.979-7.775"/>
	<path display="inline" fill="none" stroke="#000000" d="M9.504,13.259c0,0,1.85,2.247,6.486,2.247"/>
	<path display="inline" fill="none" stroke="#000000" d="M9.623,15.506c0,0,0.676,2.311,6.438,2.266"/>
	<path display="inline" fill="none" stroke="#000000" d="M10.815,18.993c0,0,0.229,1.085,5.28,1.147"/>
	<path display="inline" fill="none" stroke="#000000" d="M11.566,21.245c0,0,0.071,1.055,4.424,1.091"/>
	<path display="inline" fill="none" stroke="#000000" d="M22.458,13.259c0,0-1.849,2.247-6.483,2.247"/>
	<path display="inline" fill="none" stroke="#000000" d="M22.34,15.506c0,0-0.668,2.311-6.365,2.266"/>
	<path display="inline" fill="none" stroke="#000000" d="M21.146,18.993c0,0.001-0.226,1.085-5.244,1.147"/>
	<path display="inline" fill="none" stroke="#000000" d="M20.398,21.245c0,0-0.072,1.055-4.423,1.091"/>
	<path display="inline" fill="none" stroke="#000000" d="M21.424,12.127c0.317-0.704,9.633-11.761,9.901-5.35
		c0.272,6.511-6.796,10.286-9.593,9.366c7.526,2.476,8.062,8.391,6.146,9.837c-2.904,2.196-6.416-4.813-7.186-6.983"/>
	<path display="inline" fill="none" stroke="#000000" d="M10.731,12.127c-0.317-0.704-9.632-11.761-9.902-5.35
		c-0.272,6.511,6.795,10.286,9.593,9.366c-7.528,2.476-8.062,8.391-6.147,9.837c2.906,2.196,6.416-4.813,7.187-6.983"/>
</g>
<g id="Egg">
	<g>
		<path d="M19.416,13.158c0,4.528,3.002,16.592-1.416,16.592s-9.292-8.933-9.292-13.46c0-4.527,0.999-13.54,5.417-13.54
			S19.416,8.632,19.416,13.158z"/>
		<path d="M18,30.25c-4.759,0-9.792-9.078-9.792-13.96c0-1.437,0.166-14.04,5.917-14.04c3.788,0,5.791,3.772,5.791,10.908
			c0,1.147,0.205,2.85,0.422,4.653c0.548,4.555,1.168,9.717-0.546,11.649C19.327,29.984,18.725,30.25,18,30.25L18,30.25z
			 M14.125,3.25c-3.889,0-4.917,8.529-4.917,13.04c0,4.394,4.746,12.96,8.792,12.96c0.438,0,0.77-0.144,1.044-0.453
			c1.416-1.596,0.771-6.954,0.301-10.866c-0.221-1.833-0.429-3.566-0.429-4.772C18.916,9.458,18.294,3.25,14.125,3.25L14.125,3.25z"
			/>
	</g>
</g>
<g id="Larva" display="none">
	<path display="inline" fill="none" stroke="#000000" d="M22.208,3.666c0.459,1.833-2.312,1.798-4.25,2.417
		C16,6.708,14.701,7.704,14.042,7.375C12.708,6.708,13,4.625,16.542,3.5C19.229,2.646,21.625,2.5,22.208,3.666z"/>
	<path display="inline" fill="none" stroke="#000000" d="M24.333,11.791c0,0.656-2.472,0.208-5.083,0.208s-7.583,0.822-7.583,0.167
		c0-0.655-0.292-1,6.125-2.458C26.287,8.542,24.333,11.135,24.333,11.791z"/>
	<path display="inline" fill="none" stroke="#000000" d="M25.417,15.708c-0.125,2.5-2.167,0.5-6.042,0.167
		c-3.668-0.315-9.083,0.5-8.75-1.375c0.121-0.68,1.961-1.556,5.625-1.917C27.667,11.458,25.451,15.019,25.417,15.708z"/>
	<path display="inline" fill="none" stroke="#000000" d="M24.75,20.333c-0.643,1.077-1.458,0.333-6.833-0.333
		c-5.028,0-8.667,0.295-8.667-0.959s0.508-3.498,7.917-3.125C24.625,16.291,26.416,17.541,24.75,20.333z"/>
	<path display="inline" fill="none" stroke="#000000" d="M23.625,24.041c-1.605,1.771-2.154,0.167-7.792,0.167
		c-5.417-0.625-7.917,0.858-7.917-1.167c0-2.023,2.5-3.333,10.5-2.666C24.007,20.841,25.25,22.249,23.625,24.041z"/>
	<path display="inline" fill="none" stroke="#000000" d="M22.958,26.291c0,1.45-2.423,2.375-7.521,2.375
		c-5.097,0-7.646-1.008-7.646-2.458s1.708-2.042,7.75-1.917C21.583,24.25,22.958,24.841,22.958,26.291z"/>
	<path display="inline" fill="none" stroke="#000000" d="M19.333,29.416c0,0.736-5.375,1.459-7.625,1
		C9.712,30.009,9.542,29.736,9.542,29s2.255-0.417,4.292-0.417C15.87,28.583,19.333,28.68,19.333,29.416z"/>
	<path display="inline" fill="none" stroke="#000000" d="M23.417,6.541c0.75,2.958-0.459,2.333-3.167,2.667
		c-1.953,0.58-7.119,1.674-7.417,1c-0.625-1.417,1.458-2.292,5.083-3.417S23.236,5.827,23.417,6.541z"/>
	<path display="inline" fill="none" stroke="#000000" d="M20.208,1.791c0.295,0.675-2.354,0.975-4.333,1.458
		C14,3.708,13.827,4.195,13.583,3.5c-0.292-0.833-0.009-1.262,1.958-1.792C17.708,1.125,19.917,1.125,20.208,1.791z"/>
	<g id="Layer_4" display="inline">
	</g>
</g>
</svg>
