<?xml version="1.0" encoding="utf-8"?>
<!-- Generator: Adobe Illustrator 14.0.0, SVG Export Plug-In . SVG Version: 6.00 Build 43363)  -->
<!DOCTYPE svg PUBLIC "-//W3C//DTD SVG 1.1//EN" "http://www.w3.org/Graphics/SVG/1.1/DTD/svg11.dtd">
<svg version="1.1" id="Layer_1" xmlns="http://www.w3.org/2000/svg" xmlns:xlink="http://www.w3.org/1999/xlink" x="0px" y="0px"
	 width="32px" height="32px" viewBox="0 0 32 32" enable-background="new 0 0 32 32" xml:space="preserve">
<g id="Bee" display="none">
	<path display="inline" fill="none" stroke="#000000" d="M20.52,8.712c0-6.794-4.528-4.529-4.528-4.529s-4.529-2.265-4.529,4.529
		c0,0,0,2.265,4.529,2.265C20.52,10.977,20.52,8.712,20.52,8.712z"/>
	<path display="inline" fill="none" stroke="#000000" d="M20.52,11.298c0,0,4.529,0,0,9.06c0,0,0,4.528-4.528,4.528
		c-4.529,0-4.529-4.528-4.529-4.528c-4.53-9.06,0-9.06,0-9.06S15.99,13.563,20.52,11.298z"/>
	<path display="inline" fill="none" stroke="#000000" d="M15.99,31.68c0-6.166-2.979-7.775-2.979-7.775"/>
	<path display="inline" fill="none" stroke="#000000" d="M15.99,31.68c0-6.166,2.979-7.775,2.979-7.775"/>
	<path display="inline" fill="none" stroke="#000000" d="M9.504,13.259c0,0,1.85,2.247,6.486,2.247"/>
	<path display="inline" fill="none" stroke="#000000" d="M9.623,15.506c0,0,0.676,2.311,6.438,2.266"/>
	<path display="inline" fill="none" stroke="#000000" d="M10.815,18.993c0,0,0.229,1.085,5.28,1.147"/>
	<path display="inline" fill="none" stroke="#000000" d="M11.566,21.245c0,0,0.071,1.055,4.424,1.091"/>
	<path display="inline" fill="none" stroke="#000000" d="M22.458,13.259c0,0-1.849,2.247-6.483,2.247"/>
	<path display="inline" fill="none" stroke="#000000" d="M22.34,15.506c0,0-0.668,2.311-6.365,2.266"/>
	<path display="inline" fill="none" stroke="#000000" d="M21.146,18.993c0,0.001-0.226,1.085-5.244,1.147"/>
	<path display="inline" fill="none" stroke="#000000" d="M20.398,21.245c0,0-0.072,1.055-4.423,1.091"/>
	<path display="inline" fill="none" stroke="#000000" d="M21.424,12.127c0.317-0.704,9.633-11.761,9.901-5.35
		c0.272,6.511-6.796,10.286-9.593,9.366c7.526,2.476,8.062,8.391,6.146,9.837c-2.904,2.196-6.416-4.813-7.186-6.983"/>
	<path display="inline" fill="none" stroke="#000000" d="M10.731,12.127c-0.317-0.704-9.632-11.761-9.902-5.35
		c-0.272,6.511,6.795,10.286,9.593,9.366c-7.528,2.476-8.062,8.391-6.147,9.837c2.906,2.196,6.416-4.813,7.187-6.983"/>
</g>
<g id="Egg">
	<g>
		<path d="M18,30.25c-4.759,0-9.792-9.646-9.792-14.833C8.208,13.89,8.374,0.5,14.125,0.5c3.788,0,5.791,4.005,5.791,11.583
			c0,1.225,0.205,3.04,0.422,4.962c0.554,4.896,1.18,10.445-0.597,12.434C19.284,29.99,18.698,30.25,18,30.25L18,30.25z M14.125,1.5
			c-3.889,0-4.917,9.104-4.917,13.917c0,4.689,4.746,13.833,8.792,13.833c0.413,0,0.729-0.139,0.996-0.438
			c1.478-1.654,0.825-7.435,0.349-11.655c-0.221-1.951-0.429-3.793-0.429-5.074C18.916,8.13,18.294,1.5,14.125,1.5L14.125,1.5z"/>
	</g>
</g>
</svg>
