<?xml version="1.0" encoding="utf-8"?>
<!-- Generator: Adobe Illustrator 14.0.0, SVG Export Plug-In . SVG Version: 6.00 Build 43363)  -->
<!DOCTYPE svg PUBLIC "-//W3C//DTD SVG 1.1//EN" "http://www.w3.org/Graphics/SVG/1.1/DTD/svg11.dtd">
<svg version="1.1" id="Layer_1" xmlns="http://www.w3.org/2000/svg" xmlns:xlink="http://www.w3.org/1999/xlink" x="0px" y="0px"
	 width="32px" height="32px" viewBox="0 0 32 32" enable-background="new 0 0 32 32" xml:space="preserve">
<g id="Bee" display="none">
	<path display="inline" fill="none" stroke="#000000" d="M20.52,8.712c0-6.794-4.528-4.529-4.528-4.529s-4.529-2.265-4.529,4.529
		c0,0,0,2.265,4.529,2.265C20.52,10.977,20.52,8.712,20.52,8.712z"/>
	<path display="inline" fill="none" stroke="#000000" d="M20.52,11.298c0,0,4.529,0,0,9.06c0,0,0,4.528-4.528,4.528
		c-4.529,0-4.529-4.528-4.529-4.528c-4.53-9.06,0-9.06,0-9.06S15.99,13.563,20.52,11.298z"/>
	<path display="inline" fill="none" stroke="#000000" d="M15.99,31.68c0-6.166-2.979-7.775-2.979-7.775"/>
	<path display="inline" fill="none" stroke="#000000" d="M15.99,31.68c0-6.166,2.979-7.775,2.979-7.775"/>
	<path display="inline" fill="none" stroke="#000000" d="M9.504,13.259c0,0,1.85,2.247,6.486,2.247"/>
	<path display="inline" fill="none" stroke="#000000" d="M9.623,15.506c0,0,0.676,2.311,6.438,2.266"/>
	<path display="inline" fill="none" stroke="#000000" d="M10.815,18.993c0,0,0.229,1.085,5.28,1.147"/>
	<path display="inline" fill="none" stroke="#000000" d="M11.566,21.245c0,0,0.071,1.055,4.424,1.091"/>
	<path display="inline" fill="none" stroke="#000000" d="M22.458,13.259c0,0-1.849,2.247-6.483,2.247"/>
	<path display="inline" fill="none" stroke="#000000" d="M22.34,15.506c0,0-0.668,2.311-6.365,2.266"/>
	<path display="inline" fill="none" stroke="#000000" d="M21.146,18.993c0,0.001-0.226,1.085-5.244,1.147"/>
	<path display="inline" fill="none" stroke="#000000" d="M20.398,21.245c0,0-0.072,1.055-4.423,1.091"/>
	<path display="inline" fill="none" stroke="#000000" d="M21.424,12.127c0.317-0.704,9.633-11.761,9.901-5.35
		c0.272,6.511-6.796,10.286-9.593,9.366c7.526,2.476,8.062,8.391,6.146,9.837c-2.904,2.196-6.416-4.813-7.186-6.983"/>
	<path display="inline" fill="none" stroke="#000000" d="M10.731,12.127c-0.317-0.704-9.632-11.761-9.902-5.35
		c-0.272,6.511,6.795,10.286,9.593,9.366c-7.528,2.476-8.062,8.391-6.147,9.837c2.906,2.196,6.416-4.813,7.187-6.983"/>
</g>
<g id="Egg" display="none">
	<path display="inline" stroke="#000000" d="M19.416,12.083c0,4.821,3.002,17.667-1.416,17.667s-9.292-9.512-9.292-14.333
		C8.708,10.596,9.707,1,14.125,1S19.416,7.263,19.416,12.083z"/>
</g>
<g id="Larva" display="none">
	<path display="inline" fill="none" stroke="#000000" d="M22.208,3.666c0.459,1.833-2.312,1.798-4.25,2.417
		C16,6.708,14.701,7.704,14.042,7.375C12.708,6.708,13,4.625,16.542,3.5C19.229,2.646,21.625,2.5,22.208,3.666z"/>
	<path display="inline" fill="none" stroke="#000000" d="M24.333,11.791c0,0.656-2.472,0.208-5.083,0.208s-7.583,0.822-7.583,0.167
		c0-0.655-0.292-1,6.125-2.458C26.287,8.542,24.333,11.135,24.333,11.791z"/>
	<path display="inline" fill="none" stroke="#000000" d="M25.417,15.708c-0.125,2.5-2.167,0.5-6.042,0.167
		c-3.668-0.315-9.083,0.5-8.75-1.375c0.121-0.68,1.961-1.556,5.625-1.917C27.667,11.458,25.451,15.019,25.417,15.708z"/>
	<path display="inline" fill="none" stroke="#000000" d="M24.75,20.333c-0.643,1.077-1.458,0.333-6.833-0.333
		c-5.028,0-8.667,0.295-8.667-0.959s0.508-3.498,7.917-3.125C24.625,16.291,26.416,17.541,24.75,20.333z"/>
	<path display="inline" fill="none" stroke="#000000" d="M23.625,24.041c-1.605,1.771-2.154,0.167-7.792,0.167
		c-5.417-0.625-7.917,0.858-7.917-1.167c0-2.023,2.5-3.333,10.5-2.666C24.007,20.841,25.25,22.249,23.625,24.041z"/>
	<path display="inline" fill="none" stroke="#000000" d="M22.958,26.291c0,1.45-2.423,2.375-7.521,2.375
		c-5.097,0-7.646-1.008-7.646-2.458s1.708-2.042,7.75-1.917C21.583,24.25,22.958,24.841,22.958,26.291z"/>
	<path display="inline" fill="none" stroke="#000000" d="M19.333,29.416c0,0.736-5.375,1.459-7.625,1
		C9.712,30.009,9.542,29.736,9.542,29s2.255-0.417,4.292-0.417C15.87,28.583,19.333,28.68,19.333,29.416z"/>
	<path display="inline" fill="none" stroke="#000000" d="M23.417,6.541c0.75,2.958-0.459,2.333-3.167,2.667
		c-1.953,0.58-7.119,1.674-7.417,1c-0.625-1.417,1.458-2.292,5.083-3.417S23.236,5.827,23.417,6.541z"/>
	<path display="inline" fill="none" stroke="#000000" d="M20.208,1.791c0.295,0.675-2.354,0.975-4.333,1.458
		C14,3.708,13.827,4.195,13.583,3.5c-0.292-0.833-0.009-1.262,1.958-1.792C17.708,1.125,19.917,1.125,20.208,1.791z"/>
	<g id="Layer_4" display="inline">
	</g>
</g>
<g id="Pollen" display="none">
	<polygon display="inline" stroke="#000000" points="15.284,28.122 12.626,30.326 11.244,27.039 9.426,25.99 6.147,26.586 
		6.468,23.032 5.419,21.214 2.408,20.107 4.336,17.174 4.336,15.075 2.408,12.626 5.419,11.035 6.468,9.217 6.147,6.147 
		9.426,6.259 11.244,5.21 12.626,2.408 15.284,4.127 17.384,4.127 20.107,2.408 21.423,5.21 23.241,6.259 26.586,6.147 
		26.199,9.217 27.248,11.035 30.326,12.626 28.331,15.075 28.331,17.174 30.326,20.107 27.248,21.214 26.199,23.032 26.586,26.586 
		23.241,25.99 21.423,27.039 20.107,30.326 17.384,28.122 	"/>
</g>
<g id="Honeypot">
	<g>
		<path d="M24.335,12.881c0.847-0.491,1.342-1.061,1.342-1.671c0-1.705-3.784-3.107-8.643-3.283
			c-0.354-0.042-0.712-0.066-1.076-0.066c-0.377,0-0.748,0.027-1.115,0.073c-4.793,0.196-8.51,1.587-8.51,3.275
			c0,0.595,0.467,1.151,1.273,1.633c-1.124,1.85-1.785,4.088-1.785,6.504c0,6.344,4.538,11.485,10.137,11.485
			c5.599,0,10.138-5.144,10.138-11.485C26.096,16.948,25.445,14.723,24.335,12.881z M21.259,19.672
			c-1.069-0.977-1.161-2.79-1.349-2.604c-0.186,0.186-0.698,1.676,0.558,6.093c1.255,4.416-6.183,10.136-4.928-1.675
			c0.79-3.674-1.814-6.185-1.814-6.185c3.403-0.052,2.225,0.074,5.021-0.326c1.954-0.279,3.999-0.836,3.999-0.836
			s-1.395,0.231,0,3.021C24.143,19.951,22.416,20.729,21.259,19.672z M15.958,13.535c-4.494,0-8.137-1.104-8.137-2.465
			c0-1.361,3.643-2.464,8.137-2.464s8.138,1.104,8.138,2.464C24.096,12.431,20.452,13.535,15.958,13.535z"/>
		<path d="M15.958,31.331c-5.865,0-10.637-5.377-10.637-11.985c0-2.258,0.557-4.441,1.616-6.347
			c-0.733-0.535-1.104-1.136-1.104-1.79c0-2.341,4.66-3.598,8.989-3.774c0.74-0.096,1.476-0.099,2.271-0.004
			c4.354,0.156,9.084,1.408,9.084,3.78c0,0.476-0.215,1.157-1.171,1.834c1.042,1.893,1.59,4.061,1.59,6.301
			C26.596,25.954,21.823,31.331,15.958,31.331L15.958,31.331z M7.763,10.06c-0.603,0.375-0.93,0.773-0.93,1.149
			c0,0.379,0.366,0.807,1.029,1.204l0.433,0.258l-0.262,0.431c-1.12,1.844-1.712,4.003-1.712,6.244
			c0,6.058,4.323,10.985,9.637,10.985c5.314,0,9.638-4.928,9.638-10.985c0-2.228-0.584-4.374-1.689-6.207l-0.262-0.436l0.439-0.255
			c0.705-0.408,1.093-0.848,1.093-1.238c0-0.429-0.418-0.883-1.177-1.299c0.381,0.34,0.596,0.727,0.596,1.159
			c0,1.947-4.346,2.965-8.638,2.965s-8.637-1.019-8.637-2.965C7.321,10.699,7.479,10.362,7.763,10.06L7.763,10.06z M15.958,9.106
			c-4.662,0-7.637,1.163-7.637,1.964c0,0.801,2.975,1.965,7.637,1.965s7.638-1.164,7.638-1.965
			C23.596,10.269,20.62,9.106,15.958,9.106L15.958,9.106z M17.466,28.999c-0.562,0-1.071-0.236-1.474-0.684
			c-0.997-1.109-1.317-3.425-0.949-6.882c0.731-3.415-1.64-5.749-1.664-5.772l-0.873-0.841l1.212-0.019
			c0.812-0.012,1.364-0.015,1.771-0.016c1.111-0.005,1.111-0.005,2.512-0.208l0.675-0.097c1.71-0.244,3.493-0.705,3.871-0.805
			l0.117-0.029l0.213,0.976c-0.063,0.018-0.144,0.057-0.196,0.184c-0.075,0.181-0.177,0.752,0.513,2.131
			c0.809,1.615,0.618,2.535,0.317,3.023c-0.504,0.816-1.735,0.858-2.589,0.08c-0.325-0.297-0.57-0.655-0.758-1.016
			c0.059,0.869,0.26,2.154,0.784,3.999c0.482,1.696-0.184,3.409-0.967,4.446C19.248,28.442,18.331,28.999,17.466,28.999
			L17.466,28.999z M14.776,15.79c0.771,1.088,1.822,3.155,1.252,5.802c-0.432,4.096,0.257,5.554,0.707,6.055
			c0.625,0.693,1.647,0.281,2.448-0.778c0.639-0.846,1.185-2.228,0.804-3.57c-1.146-4.03-0.948-6.065-0.431-6.583l0.146-0.146
			l0.233-0.014c0.432,0,0.546,0.394,0.667,0.81c0.152,0.525,0.408,1.405,0.992,1.938c0.389,0.354,0.878,0.433,1.064,0.133
			c0.086-0.14,0.314-0.7-0.361-2.051c-0.505-1.01-0.725-1.82-0.665-2.454c-0.771,0.179-1.805,0.396-2.816,0.541l-0.673,0.097
			c-1.457,0.211-1.481,0.213-2.651,0.218C15.294,15.786,15.06,15.787,14.776,15.79L14.776,15.79z"/>
	</g>
	<g>
		<path d="M20.145,11.069c0.045-0.231,2.789-4.23,4.881-8.555c1.865-3.853-2.277,1.72-2.277,1.72l-4.93,6.789L20.145,11.069z"/>
		<path d="M20.531,11.656l-0.396-0.087l-3.283-0.065l5.492-7.564c2.44-3.283,2.854-3.283,3.102-3.283h0.277l0.194,0.259
			c0.174,0.278,0.151,0.592-0.441,1.816c-1.502,3.105-3.308,5.996-4.278,7.549c-0.279,0.447-0.543,0.87-0.586,0.962L20.531,11.656
			L20.531,11.656z M18.785,10.542l1.063,0.021c0.101-0.169,0.257-0.419,0.502-0.812c0.846-1.354,2.334-3.736,3.687-6.374
			c-0.299,0.376-0.604,0.775-0.887,1.155L18.785,10.542L18.785,10.542z"/>
	</g>
</g>
</svg>
