<?xml version="1.0" encoding="utf-8"?>
<!-- Generator: Adobe Illustrator 14.0.0, SVG Export Plug-In . SVG Version: 6.00 Build 43363)  -->
<!DOCTYPE svg PUBLIC "-//W3C//DTD SVG 1.1//EN" "http://www.w3.org/Graphics/SVG/1.1/DTD/svg11.dtd">
<svg version="1.1" xmlns="http://www.w3.org/2000/svg" xmlns:xlink="http://www.w3.org/1999/xlink" x="0px" y="0px" width="32px"
	 height="32px" viewBox="0 0 32 32" enable-background="new 0 0 32 32" xml:space="preserve">
<g id="Bee" display="none">
	<path display="inline" fill="none" stroke="#000000" d="M20.519,8.712c0-6.794-4.528-4.529-4.528-4.529s-4.529-2.265-4.529,4.529
		c0,0,0,2.265,4.529,2.265C20.519,10.977,20.519,8.712,20.519,8.712z"/>
	<path display="inline" fill="none" stroke="#000000" d="M20.519,11.298c0,0,4.53,0,0,9.059c0,0,0,4.529-4.528,4.529
		c-4.529,0-4.529-4.529-4.529-4.529c-4.53-9.059,0-9.059,0-9.059S15.99,13.563,20.519,11.298z"/>
	<path display="inline" fill="none" stroke="#000000" d="M15.99,31.68c0-6.166-2.979-7.775-2.979-7.775"/>
	<path display="inline" fill="none" stroke="#000000" d="M15.99,31.68c0-6.166,2.979-7.775,2.979-7.775"/>
	<path display="inline" fill="none" stroke="#000000" d="M9.504,13.259c0,0,1.85,2.247,6.486,2.247"/>
	<path display="inline" fill="none" stroke="#000000" d="M9.623,15.506c0,0,0.676,2.311,6.438,2.265"/>
	<path display="inline" fill="none" stroke="#000000" d="M10.815,18.993c0,0,0.229,1.085,5.28,1.148"/>
	<path display="inline" fill="none" stroke="#000000" d="M11.566,21.245c0,0,0.071,1.055,4.424,1.091"/>
	<path display="inline" fill="none" stroke="#000000" d="M22.458,13.259c0,0-1.849,2.247-6.483,2.247"/>
	<path display="inline" fill="none" stroke="#000000" d="M22.34,15.506c0,0-0.668,2.311-6.365,2.265"/>
	<path display="inline" fill="none" stroke="#000000" d="M21.147,18.993c0,0.001-0.226,1.085-5.244,1.148"/>
	<path display="inline" fill="none" stroke="#000000" d="M20.398,21.245c0,0-0.072,1.055-4.423,1.091"/>
	<path display="inline" fill="none" stroke="#000000" d="M21.424,12.127c0.317-0.704,9.632-11.761,9.901-5.35
		c0.272,6.511-6.795,10.286-9.592,9.366c7.526,2.476,8.061,8.391,6.146,9.837c-2.905,2.197-6.416-4.813-7.186-6.983"/>
	<path display="inline" fill="none" stroke="#000000" d="M10.731,12.127c-0.317-0.704-9.632-11.761-9.902-5.35
		c-0.272,6.511,6.795,10.286,9.593,9.366c-7.528,2.476-8.062,8.391-6.147,9.837c2.906,2.197,6.416-4.813,7.187-6.983"/>
</g>
<g id="Egg" display="none">
	<path display="inline" stroke="#000000" d="M19.416,12.083c0,4.822,3.002,17.667-1.416,17.667c-4.418,0-9.292-9.512-9.292-14.333
		C8.708,10.596,9.707,1,14.125,1C18.543,1,19.416,7.263,19.416,12.083z"/>
</g>
<g id="Larva" display="none">
	<path display="inline" fill="none" stroke="#000000" d="M22.208,3.666c0.459,1.833-2.311,1.798-4.25,2.417
		C16,6.708,14.701,7.704,14.042,7.375C12.708,6.708,13,4.625,16.542,3.5C19.229,2.646,21.625,2.5,22.208,3.666z"/>
	<path display="inline" fill="none" stroke="#000000" d="M24.333,11.791c0,0.656-2.471,0.208-5.083,0.208
		c-2.612,0-7.583,0.822-7.583,0.167s-0.292-1,6.125-2.458C26.287,8.542,24.333,11.135,24.333,11.791z"/>
	<path display="inline" fill="none" stroke="#000000" d="M25.417,15.708c-0.125,2.5-2.167,0.5-6.042,0.167
		c-3.668-0.315-9.083,0.5-8.75-1.375c0.121-0.68,1.961-1.556,5.625-1.917C27.667,11.458,25.451,15.019,25.417,15.708z"/>
	<path display="inline" fill="none" stroke="#000000" d="M24.75,20.333c-0.643,1.077-1.458,0.333-6.833-0.333
		c-5.028,0-8.667,0.295-8.667-0.959s0.508-3.498,7.917-3.125C24.625,16.291,26.416,17.541,24.75,20.333z"/>
	<path display="inline" fill="none" stroke="#000000" d="M23.625,24.041c-1.605,1.771-2.154,0.167-7.792,0.167
		c-5.417-0.625-7.917,0.858-7.917-1.167c0-2.024,2.5-3.333,10.5-2.666C24.007,20.841,25.25,22.249,23.625,24.041z"/>
	<path display="inline" fill="none" stroke="#000000" d="M22.958,26.291c0,1.45-2.423,2.375-7.521,2.375
		c-5.097,0-7.646-1.008-7.646-2.458s1.708-2.042,7.75-1.917C21.583,24.25,22.958,24.841,22.958,26.291z"/>
	<path display="inline" fill="none" stroke="#000000" d="M19.333,29.416c0,0.736-5.375,1.459-7.625,1
		C9.712,30.009,9.542,29.736,9.542,29s2.255-0.417,4.292-0.417C15.87,28.583,19.333,28.68,19.333,29.416z"/>
	<path display="inline" fill="none" stroke="#000000" d="M23.417,6.541c0.75,2.958-0.459,2.333-3.167,2.667
		c-1.953,0.58-7.119,1.674-7.417,1c-0.625-1.417,1.458-2.292,5.083-3.417S23.236,5.827,23.417,6.541z"/>
	<path display="inline" fill="none" stroke="#000000" d="M20.208,1.791c0.295,0.675-2.355,0.975-4.333,1.458
		C14,3.708,13.827,4.195,13.583,3.5c-0.292-0.833-0.009-1.262,1.958-1.792C17.708,1.125,19.917,1.125,20.208,1.791z"/>
	<g id="Layer_4" display="inline">
	</g>
</g>
<g id="Pollen" display="none">
	<polygon display="inline" stroke="#000000" points="15.284,28.122 12.626,30.326 11.244,27.039 9.426,25.99 6.147,26.586 
		6.468,23.032 5.419,21.214 2.408,20.107 4.336,17.174 4.336,15.075 2.408,12.626 5.419,11.035 6.468,9.217 6.147,6.147 
		9.426,6.259 11.244,5.21 12.626,2.408 15.284,4.127 17.384,4.127 20.107,2.408 21.423,5.21 23.241,6.259 26.586,6.147 
		26.199,9.217 27.248,11.035 30.326,12.626 28.331,15.075 28.331,17.174 30.326,20.107 27.248,21.214 26.199,23.032 26.586,26.586 
		23.241,25.99 21.423,27.039 20.107,30.326 17.384,28.122 	"/>
</g>
<g id="Honeypot">
	<path d="M24.335,12.881c0.847-0.491,1.342-1.061,1.342-1.671c0-1.705-3.785-3.107-8.643-3.283
		c-0.354-0.042-0.712-0.066-1.076-0.066c-0.377,0-0.748,0.027-1.115,0.073c-4.793,0.196-8.51,1.587-8.51,3.275
		c0,0.595,0.467,1.151,1.273,1.633c-1.124,1.85-1.785,4.088-1.785,6.504c0,6.343,4.538,11.485,10.137,11.485
		c5.598,0,10.137-5.143,10.137-11.485C26.096,16.948,25.445,14.723,24.335,12.881z M21.259,19.672
		c-1.069-0.976-1.161-2.79-1.349-2.604c-0.186,0.186-0.698,1.676,0.558,6.093c1.255,4.416-6.183,10.136-4.928-1.675
		c0.79-3.673-1.814-6.184-1.814-6.184c3.403-0.052,2.225,0.074,5.021-0.326c1.954-0.279,3.999-0.836,3.999-0.836
		s-1.395,0.231,0,3.021C24.142,19.951,22.416,20.729,21.259,19.672z M15.958,13.098c-4.211,0-7.624-0.908-7.624-2.029
		c0-1.12,3.412-2.028,7.624-2.028c4.21,0,7.625,0.908,7.625,2.028C23.583,12.19,20.169,13.098,15.958,13.098z"/>
	<path d="M19.389,12.02c0.06-0.265,3.614-4.838,6.326-9.784c2.417-4.407-2.952,1.967-2.952,1.967l-6.388,7.764L19.389,12.02z"/>
</g>
</svg>
