<?xml version="1.0" encoding="utf-8"?>
<!-- Generator: Adobe Illustrator 14.0.0, SVG Export Plug-In . SVG Version: 6.00 Build 43363)  -->
<!DOCTYPE svg PUBLIC "-//W3C//DTD SVG 1.1//EN" "http://www.w3.org/Graphics/SVG/1.1/DTD/svg11.dtd">
<svg version="1.1" xmlns="http://www.w3.org/2000/svg" xmlns:xlink="http://www.w3.org/1999/xlink" x="0px" y="0px" width="32px"
	 height="32px" viewBox="0 0 32 32" enable-background="new 0 0 32 32" xml:space="preserve">
<g id="Bee" display="none">
	<path display="inline" fill="none" stroke="#000000" d="M20.519,8.712c0-6.794-4.528-4.529-4.528-4.529s-4.529-2.265-4.529,4.529
		c0,0,0,2.265,4.529,2.265C20.519,10.977,20.519,8.712,20.519,8.712z"/>
	<path display="inline" fill="none" stroke="#000000" d="M20.519,11.298c0,0,4.53,0,0,9.059c0,0,0,4.529-4.528,4.529
		c-4.529,0-4.529-4.529-4.529-4.529c-4.53-9.059,0-9.059,0-9.059S15.99,13.563,20.519,11.298z"/>
	<path display="inline" fill="none" stroke="#000000" d="M15.99,31.68c0-6.166-2.979-7.775-2.979-7.775"/>
	<path display="inline" fill="none" stroke="#000000" d="M15.99,31.68c0-6.166,2.979-7.775,2.979-7.775"/>
	<path display="inline" fill="none" stroke="#000000" d="M9.504,13.259c0,0,1.85,2.247,6.486,2.247"/>
	<path display="inline" fill="none" stroke="#000000" d="M9.623,15.506c0,0,0.676,2.311,6.438,2.265"/>
	<path display="inline" fill="none" stroke="#000000" d="M10.815,18.993c0,0,0.229,1.085,5.28,1.148"/>
	<path display="inline" fill="none" stroke="#000000" d="M11.566,21.245c0,0,0.071,1.055,4.424,1.091"/>
	<path display="inline" fill="none" stroke="#000000" d="M22.458,13.259c0,0-1.849,2.247-6.483,2.247"/>
	<path display="inline" fill="none" stroke="#000000" d="M22.34,15.506c0,0-0.668,2.311-6.365,2.265"/>
	<path display="inline" fill="none" stroke="#000000" d="M21.147,18.993c0,0.001-0.226,1.085-5.244,1.148"/>
	<path display="inline" fill="none" stroke="#000000" d="M20.398,21.245c0,0-0.072,1.055-4.423,1.091"/>
	<path display="inline" fill="none" stroke="#000000" d="M21.424,12.127c0.317-0.704,9.632-11.761,9.901-5.35
		c0.272,6.511-6.795,10.286-9.592,9.366c7.526,2.476,8.061,8.391,6.146,9.837c-2.905,2.197-6.416-4.813-7.186-6.983"/>
	<path display="inline" fill="none" stroke="#000000" d="M10.731,12.127c-0.317-0.704-9.632-11.761-9.902-5.35
		c-0.272,6.511,6.795,10.286,9.593,9.366c-7.528,2.476-8.062,8.391-6.147,9.837c2.906,2.197,6.416-4.813,7.187-6.983"/>
</g>
<g id="Egg" display="none">
	<path display="inline" fill="none" stroke="#000000" d="M19.416,12.083c0,4.822,3.002,17.667-1.416,17.667
		c-4.418,0-9.292-9.512-9.292-14.333C8.708,10.596,9.707,1,14.125,1C18.543,1,19.416,7.263,19.416,12.083z"/>
</g>
<g id="Larva">
	<path fill="none" stroke="#000000" d="M22.208,3.666c0.459,1.833-2.311,1.798-4.25,2.417C16,6.708,14.701,7.704,14.042,7.375
		C12.708,6.708,13,4.625,16.542,3.5C19.229,2.646,21.625,2.5,22.208,3.666z"/>
	<path fill="none" stroke="#000000" d="M24.333,11.791c0,0.656-2.471,0.208-5.083,0.208c-2.612,0-7.583,0.822-7.583,0.167
		s-0.292-1,6.125-2.458C26.287,8.542,24.333,11.135,24.333,11.791z"/>
	<path fill="none" stroke="#000000" d="M25.417,15.708c-0.125,2.5-2.167,0.5-6.042,0.167c-3.668-0.315-9.083,0.5-8.75-1.375
		c0.121-0.68,1.961-1.556,5.625-1.917C27.667,11.458,25.451,15.019,25.417,15.708z"/>
	<path fill="none" stroke="#000000" d="M24.75,20.333c-0.643,1.077-1.458,0.333-6.833-0.333c-5.028,0-8.667,0.295-8.667-0.959
		s0.508-3.498,7.917-3.125C24.625,16.291,26.416,17.541,24.75,20.333z"/>
	<path fill="none" stroke="#000000" d="M23.625,24.041c-1.605,1.771-2.154,0.167-7.792,0.167c-5.417-0.625-7.917,0.858-7.917-1.167
		c0-2.024,2.5-3.333,10.5-2.666C24.007,20.841,25.25,22.249,23.625,24.041z"/>
	<path fill="none" stroke="#000000" d="M22.958,26.291c0,1.45-2.423,2.375-7.521,2.375c-5.097,0-7.646-1.008-7.646-2.458
		s1.708-2.042,7.75-1.917C21.583,24.25,22.958,24.841,22.958,26.291z"/>
	<path fill="none" stroke="#000000" d="M15.625,24.666"/>
	<path fill="none" stroke="#000000" d="M28.875,22.166"/>
	<path fill="none" stroke="#000000" d="M12.98,29.875"/>
	<path fill="none" stroke="#000000" d="M9.292,28.541"/>
	<path fill="none" stroke="#000000" d="M12.98,29.875"/>
	<path fill="none" stroke="#000000" d="M19.333,29.416c0,0.736-5.375,1.459-7.625,1C9.712,30.009,9.542,29.736,9.542,29
		s2.255-0.417,4.292-0.417C15.87,28.583,19.333,28.68,19.333,29.416z"/>
	<path fill="none" stroke="#000000" d="M23.417,6.541c0.75,2.958-0.459,2.333-3.167,2.667c-1.953,0.58-7.119,1.674-7.417,1
		c-0.625-1.417,1.458-2.292,5.083-3.417S23.236,5.827,23.417,6.541z"/>
	<path fill="none" stroke="#000000" d="M20.208,1.791c0.295,0.675-2.355,0.975-4.333,1.458C14,3.708,13.827,4.195,13.583,3.5
		c-0.292-0.833-0.009-1.262,1.958-1.792C17.708,1.125,19.917,1.125,20.208,1.791z"/>
</g>
</svg>
