<?xml version="1.0" encoding="utf-8"?>
<!-- Generator: Adobe Illustrator 14.0.0, SVG Export Plug-In . SVG Version: 6.00 Build 43363)  -->
<!DOCTYPE svg PUBLIC "-//W3C//DTD SVG 1.1//EN" "http://www.w3.org/Graphics/SVG/1.1/DTD/svg11.dtd">
<svg version="1.1" id="Layer_1" xmlns="http://www.w3.org/2000/svg" xmlns:xlink="http://www.w3.org/1999/xlink" x="0px" y="0px"
	 width="32px" height="32px" viewBox="0 0 32 32" enable-background="new 0 0 32 32" xml:space="preserve">
<g id="Bee" display="none">
	<path display="inline" fill="none" stroke="#000000" d="M20.52,8.712c0-6.794-4.528-4.529-4.528-4.529s-4.529-2.265-4.529,4.529
		c0,0,0,2.265,4.529,2.265C20.52,10.977,20.52,8.712,20.52,8.712z"/>
	<path display="inline" fill="none" stroke="#000000" d="M20.52,11.298c0,0,4.529,0,0,9.06c0,0,0,4.528-4.528,4.528
		c-4.529,0-4.529-4.528-4.529-4.528c-4.53-9.06,0-9.06,0-9.06S15.99,13.563,20.52,11.298z"/>
	<path display="inline" fill="none" stroke="#000000" d="M15.99,31.68c0-6.166-2.979-7.775-2.979-7.775"/>
	<path display="inline" fill="none" stroke="#000000" d="M15.99,31.68c0-6.166,2.979-7.775,2.979-7.775"/>
	<path display="inline" fill="none" stroke="#000000" d="M9.504,13.259c0,0,1.85,2.247,6.486,2.247"/>
	<path display="inline" fill="none" stroke="#000000" d="M9.623,15.506c0,0,0.676,2.311,6.438,2.266"/>
	<path display="inline" fill="none" stroke="#000000" d="M10.815,18.993c0,0,0.229,1.085,5.28,1.147"/>
	<path display="inline" fill="none" stroke="#000000" d="M11.566,21.245c0,0,0.071,1.055,4.424,1.091"/>
	<path display="inline" fill="none" stroke="#000000" d="M22.458,13.259c0,0-1.849,2.247-6.483,2.247"/>
	<path display="inline" fill="none" stroke="#000000" d="M22.34,15.506c0,0-0.668,2.311-6.365,2.266"/>
	<path display="inline" fill="none" stroke="#000000" d="M21.146,18.993c0,0.001-0.226,1.085-5.244,1.147"/>
	<path display="inline" fill="none" stroke="#000000" d="M20.398,21.245c0,0-0.072,1.055-4.423,1.091"/>
	<path display="inline" fill="none" stroke="#000000" d="M21.424,12.127c0.317-0.704,9.633-11.761,9.901-5.35
		c0.272,6.511-6.796,10.286-9.593,9.366c7.526,2.476,8.062,8.391,6.146,9.837c-2.904,2.196-6.416-4.813-7.186-6.983"/>
	<path display="inline" fill="none" stroke="#000000" d="M10.731,12.127c-0.317-0.704-9.632-11.761-9.902-5.35
		c-0.272,6.511,6.795,10.286,9.593,9.366c-7.528,2.476-8.062,8.391-6.147,9.837c2.906,2.196,6.416-4.813,7.187-6.983"/>
</g>
<g id="Egg" display="none">
	<path display="inline" fill="none" stroke="#000000" d="M19.416,12.083c0,4.821,3.002,17.667-1.416,17.667
		s-9.292-9.512-9.292-14.333C8.708,10.596,9.707,1,14.125,1S19.416,7.263,19.416,12.083z"/>
</g>
<g id="Larva">
	<g>
		<path d="M14.347,7.94c-0.194,0-0.372-0.04-0.528-0.118c-0.686-0.343-1.062-0.98-1.005-1.704c0.099-1.258,1.436-2.415,3.577-3.095
			c1.437-0.457,2.736-0.698,3.758-0.698c1.61,0,2.252,0.607,2.507,1.117l0.038,0.102c0.125,0.501,0.07,0.945-0.163,1.319
			c-0.505,0.81-1.692,1.064-2.95,1.333c-0.5,0.107-1.018,0.218-1.47,0.362c-0.742,0.237-1.384,0.528-1.95,0.785
			C15.427,7.677,14.847,7.94,14.347,7.94L14.347,7.94z M20.148,3.326c-0.92,0-2.115,0.225-3.455,0.651
			c-2.05,0.651-2.834,1.603-2.882,2.219c-0.033,0.423,0.271,0.64,0.455,0.732l0.081,0.012c0.284,0,0.801-0.234,1.4-0.506
			c0.562-0.255,1.262-0.572,2.059-0.827c0.499-0.16,1.041-0.275,1.565-0.388c0.951-0.204,2.03-0.435,2.311-0.884
			c0.051-0.082,0.11-0.22,0.055-0.49C21.462,3.394,20.63,3.326,20.148,3.326L20.148,3.326z"/>
	</g>
	<g>
		<path d="M12.708,12.919c-0.5,0-1.541,0-1.541-0.753c-0.021-1.103,0.289-1.531,6.515-2.946c4.159-0.575,6.28-0.375,7.051,0.643
			c0.465,0.613,0.271,1.306,0.154,1.719c-0.023,0.085-0.049,0.159-0.054,0.217c0,0.849-1.155,0.849-1.648,0.849
			c-0.438,0-0.975-0.03-1.57-0.063c-0.723-0.04-1.541-0.086-2.364-0.086c-0.948,0-2.229,0.112-3.466,0.22
			C14.609,12.822,13.499,12.919,12.708,12.919L12.708,12.919z M12.193,11.896c0.108,0.012,0.271,0.023,0.515,0.023
			c0.748,0,1.836-0.095,2.988-0.196c1.26-0.11,2.563-0.224,3.554-0.224c0.852,0,1.685,0.046,2.42,0.088
			c0.575,0.032,1.093,0.062,1.515,0.062c0.373,0,0.568-0.025,0.667-0.046c0.017-0.092,0.044-0.187,0.072-0.29
			c0.104-0.368,0.165-0.644,0.012-0.845c-0.157-0.208-0.692-0.557-2.507-0.557c-0.952,0-2.153,0.098-3.568,0.293
			C14.382,10.996,12.465,11.567,12.193,11.896L12.193,11.896z"/>
	</g>
	<g>
		<path d="M24.48,17.447c-0.486,0-1.064-0.166-1.795-0.377c-0.898-0.26-2.017-0.583-3.354-0.697
			c-0.848-0.073-1.795-0.083-2.61-0.083l-1.718,0.005c-2.521,0-4.002-0.139-4.616-0.87c-0.235-0.28-0.323-0.631-0.255-1.013
			c0.196-1.103,2.465-1.972,6.068-2.327c5.322-0.526,8.425-0.121,9.494,1.265c0.629,0.816,0.395,1.708,0.269,2.188
			c-0.021,0.081-0.042,0.148-0.048,0.199C25.859,16.87,25.376,17.447,24.48,17.447L24.48,17.447z M16.722,15.291
			c0.836,0,1.811,0.01,2.696,0.086c1.434,0.123,2.604,0.461,3.545,0.732c0.629,0.182,1.172,0.338,1.518,0.338
			c0.214,0,0.399,0,0.438-0.764c0.006-0.123,0.039-0.251,0.078-0.399c0.129-0.49,0.211-0.929-0.093-1.323
			c-0.386-0.5-1.521-1.096-4.744-1.096c-1.109,0-2.408,0.072-3.86,0.215c-3.985,0.393-5.116,1.307-5.183,1.512
			c-0.02,0.11,0.008,0.155,0.038,0.19c0.43,0.513,2.739,0.513,3.849,0.513L16.722,15.291L16.722,15.291z"/>
	</g>
	<g>
		<path d="M23.763,21.377c-0.452,0-1.032-0.104-1.912-0.263c-0.935-0.167-2.214-0.397-3.995-0.618
			c-0.791,0.004-1.604,0.013-2.366,0.021c-0.675,0.007-1.31,0.014-1.897,0.014c-1.619,0-2.563-0.053-3.26-0.184
			c-1.05-0.196-1.582-0.636-1.582-1.306c0-2.467,2.244-3.667,6.861-3.667c0.489,0,1.015,0.014,1.582,0.042
			c5.226,0.263,7.66,0.936,8.402,2.323c0.409,0.764,0.273,1.696-0.415,2.85C24.85,21.142,24.427,21.377,23.763,21.377L23.763,21.377
			z M17.917,19.5c1.87,0.228,3.165,0.461,4.11,0.631c0.826,0.148,1.373,0.246,1.735,0.246c0.329,0,0.419-0.067,0.558-0.3
			c0.494-0.827,0.622-1.438,0.393-1.866c-0.523-0.979-3-1.565-7.571-1.795c-0.548-0.028-1.057-0.041-1.531-0.041
			c-5.861,0-5.861,1.937-5.861,2.667c0,0.072,0.204,0.218,0.766,0.323c0.784,0.146,1.995,0.166,3.076,0.166
			c0.584,0,1.216-0.007,1.887-0.014C16.244,19.509,17.061,19.5,17.917,19.5L17.917,19.5z"/>
	</g>
	<g>
		<path d="M22.036,25.374c-0.415,0-0.867-0.087-1.439-0.196c-1.033-0.198-2.449-0.47-4.764-0.47
			c-1.012-0.113-1.957-0.167-2.945-0.167c-0.829,0-1.549,0.037-2.163,0.069c-0.471,0.024-0.882,0.045-1.234,0.045
			c-0.49,0-1.045-0.034-1.452-0.29c-0.419-0.264-0.623-0.696-0.623-1.324c0-3.342,5.432-3.342,7.216-3.342
			c1.128,0,2.416,0.06,3.826,0.178c3.707,0.309,5.741,1.048,6.219,2.258c0.271,0.689,0.042,1.444-0.682,2.242
			C23.354,25.085,22.786,25.374,22.036,25.374L22.036,25.374z M15.93,23.711c2.33,0,3.849,0.292,4.855,0.484
			c0.521,0.1,0.931,0.179,1.251,0.179c0.397,0,0.709-0.106,1.219-0.669c0.307-0.339,0.642-0.822,0.491-1.203
			c-0.145-0.367-0.958-1.261-5.372-1.629c-6.561-0.547-9.958,0.2-9.958,2.168c0,0.38,0.104,0.446,0.155,0.478
			c0.218,0.137,0.755,0.122,0.92,0.137c0.337,0,0.731-0.021,1.183-0.044c0.628-0.032,1.365-0.07,2.214-0.07
			c1.027,0,2.009,0.056,3.002,0.17C15.903,23.711,15.917,23.711,15.93,23.711L15.93,23.711z"/>
	</g>
	<g>
		<path d="M15.437,29.166c-5.253,0-8.146-1.051-8.146-2.958c0-2.035,2.485-2.434,6.778-2.434c0.463,0,0.956,0.006,1.482,0.017
			l0.56-0.002c4.978,0,7.347,0.374,7.347,2.502C23.458,28.198,20.76,29.166,15.437,29.166L15.437,29.166z M14.069,24.774
			c-5.078,0-5.778,0.689-5.778,1.434c0,0.975,2.209,1.958,7.146,1.958c5.176,0,7.021-0.969,7.021-1.875
			c0-0.792-0.485-1.502-6.347-1.502l-0.567,0.002C15.012,24.78,14.525,24.774,14.069,24.774L14.069,24.774z"/>
	</g>
	<g>
		<path fill="none" d="M15.625,24.666"/>
	</g>
	<g>
		<path fill="none" d="M28.875,22.166"/>
	</g>
	<g>
		<path fill="none" d="M12.98,29.875"/>
	</g>
	<g>
		<path fill="none" d="M9.292,28.541"/>
	</g>
	<g>
		<path fill="none" d="M12.98,29.875"/>
	</g>
	<g>
		<path d="M13.533,31.06c-0.777,0-1.424-0.052-1.925-0.153C9.683,30.513,9.042,30.183,9.042,29c0-0.986,1.392-0.986,2.06-0.986
			c0.384,0,0.815,0.017,1.265,0.033c0.478,0.018,0.979,0.036,1.467,0.036c5.536,0,5.999,0.658,5.999,1.333
			C19.833,30.963,13.596,31.06,13.533,31.06L13.533,31.06z M10.043,29.109c0.014,0.333,0.165,0.49,1.765,0.816
			c0.429,0.088,1.025,0.134,1.725,0.134c1.981,0,4.07-0.342,4.961-0.644c-0.543-0.146-1.798-0.333-4.66-0.333
			c-0.5,0-1.014-0.019-1.504-0.037c-0.437-0.017-0.855-0.032-1.228-0.032C10.433,29.014,10.156,29.07,10.043,29.109L10.043,29.109z"
			/>
	</g>
	<g>
		<path d="M13.667,10.92c-0.527,0-1.092-0.061-1.291-0.51c-0.199-0.452-0.205-0.891-0.016-1.305c0.496-1.09,2.283-1.822,5.408-2.792
			c1.791-0.556,3.223-0.837,4.255-0.837c1.356,0,1.771,0.512,1.879,0.942c0.323,1.275,0.312,1.992-0.041,2.477
			c-0.425,0.583-1.172,0.629-2.206,0.695c-0.394,0.024-0.842,0.053-1.343,0.114C18.902,10.13,15.38,10.92,13.667,10.92L13.667,10.92
			z M13.248,9.891c0.07,0.014,0.199,0.03,0.418,0.03c1.482,0,4.805-0.706,6.441-1.192c0.604-0.082,1.073-0.111,1.484-0.137
			c0.704-0.044,1.312-0.083,1.46-0.286c0.101-0.138,0.161-0.534-0.119-1.642c-0.021-0.04-0.238-0.188-0.91-0.188
			c-0.641,0-1.848,0.138-3.958,0.792c-1.534,0.476-4.39,1.362-4.795,2.251C13.232,9.603,13.198,9.718,13.248,9.891L13.248,9.891z"/>
	</g>
	<g>
		<path d="M13.902,4.348c-0.552,0-0.726-0.496-0.791-0.682c-0.107-0.307-0.223-0.766,0.011-1.209
			c0.272-0.515,0.914-0.86,2.289-1.231c1.065-0.287,2.159-0.444,3.08-0.444c1.208,0,1.94,0.272,2.175,0.81
			c0.093,0.211,0.086,0.439-0.02,0.641c-0.296,0.57-1.279,0.795-3.139,1.174c-0.51,0.104-1.032,0.211-1.514,0.329
			c-0.63,0.154-1.056,0.311-1.367,0.424C14.317,4.272,14.113,4.348,13.902,4.348L13.902,4.348z M18.491,1.781
			c-0.823,0-1.852,0.149-2.82,0.41c-1.231,0.332-1.584,0.581-1.664,0.731c-0.015,0.029-0.055,0.104,0.038,0.383
			c0.072-0.024,0.157-0.056,0.237-0.085c0.314-0.116,0.79-0.29,1.474-0.458c0.494-0.121,1.03-0.23,1.551-0.336
			c0.708-0.145,1.701-0.348,2.197-0.539C19.309,1.834,18.985,1.781,18.491,1.781L18.491,1.781z"/>
	</g>
</g>
</svg>
