<?xml version="1.0" encoding="utf-8"?>
<!-- Generator: Adobe Illustrator 14.0.0, SVG Export Plug-In . SVG Version: 6.00 Build 43363)  -->
<!DOCTYPE svg PUBLIC "-//W3C//DTD SVG 1.1//EN" "http://www.w3.org/Graphics/SVG/1.1/DTD/svg11.dtd">
<svg version="1.1" xmlns="http://www.w3.org/2000/svg" xmlns:xlink="http://www.w3.org/1999/xlink" x="0px" y="0px" width="32px"
	 height="32px" viewBox="0 0 32 32" enable-background="new 0 0 32 32" xml:space="preserve">
<g id="Bee" display="none">
	<path display="inline" fill="none" stroke="#000000" d="M20.519,8.712c0-6.794-4.528-4.529-4.528-4.529s-4.529-2.265-4.529,4.529
		c0,0,0,2.265,4.529,2.265C20.519,10.977,20.519,8.712,20.519,8.712z"/>
	<path display="inline" fill="none" stroke="#000000" d="M20.519,11.298c0,0,4.53,0,0,9.059c0,0,0,4.529-4.528,4.529
		c-4.529,0-4.529-4.529-4.529-4.529c-4.53-9.059,0-9.059,0-9.059S15.99,13.563,20.519,11.298z"/>
	<path display="inline" fill="none" stroke="#000000" d="M15.99,31.68c0-6.166-2.979-7.775-2.979-7.775"/>
	<path display="inline" fill="none" stroke="#000000" d="M15.99,31.68c0-6.166,2.979-7.775,2.979-7.775"/>
	<path display="inline" fill="none" stroke="#000000" d="M9.504,13.259c0,0,1.85,2.247,6.486,2.247"/>
	<path display="inline" fill="none" stroke="#000000" d="M9.623,15.506c0,0,0.676,2.311,6.438,2.265"/>
	<path display="inline" fill="none" stroke="#000000" d="M10.815,18.993c0,0,0.229,1.085,5.28,1.148"/>
	<path display="inline" fill="none" stroke="#000000" d="M11.566,21.245c0,0,0.071,1.055,4.424,1.091"/>
	<path display="inline" fill="none" stroke="#000000" d="M22.458,13.259c0,0-1.849,2.247-6.483,2.247"/>
	<path display="inline" fill="none" stroke="#000000" d="M22.34,15.506c0,0-0.668,2.311-6.365,2.265"/>
	<path display="inline" fill="none" stroke="#000000" d="M21.147,18.993c0,0.001-0.226,1.085-5.244,1.148"/>
	<path display="inline" fill="none" stroke="#000000" d="M20.398,21.245c0,0-0.072,1.055-4.423,1.091"/>
	<path display="inline" fill="none" stroke="#000000" d="M21.424,12.127c0.317-0.704,9.632-11.761,9.901-5.35
		c0.272,6.511-6.795,10.286-9.592,9.366c7.526,2.476,8.061,8.391,6.146,9.837c-2.905,2.197-6.416-4.813-7.186-6.983"/>
	<path display="inline" fill="none" stroke="#000000" d="M10.731,12.127c-0.317-0.704-9.632-11.761-9.902-5.35
		c-0.272,6.511,6.795,10.286,9.593,9.366c-7.528,2.476-8.062,8.391-6.147,9.837c2.906,2.197,6.416-4.813,7.187-6.983"/>
</g>
<g id="Bee-2" display="none">
	<circle display="inline" cx="15.958" cy="10.958" r="4"/>
	<path display="inline" d="M15.958,18.832c-2.531,0-4.583,0.725-4.583,4.084S13.427,31,15.958,31c2.532,0,4.583-4.725,4.583-8.084
		S18.49,18.832,15.958,18.832z M19.828,25.766C19.703,26.25,19.313,27,19.313,27s-1.03,1.078-3.343,1.078S12.688,27,12.688,27
		s-0.313-0.494-0.5-1.219s-0.25-1.219-0.25-1.219s1.312,0.859,3.937,0.859s4.188-0.86,4.188-0.86S19.953,25.281,19.828,25.766z
		 M16,23.078c-3.235,0-4.11-0.703-4.11-0.703s0.016-0.438,0.188-1.172s0.412-0.891,0.412-0.891s1.215,0.703,3.449,0.703
		s3.468-0.703,3.468-0.703s0.25,0.109,0.516,1s0.141,1.063,0.141,1.063S19.235,23.078,16,23.078z"/>
	<circle display="inline" cx="15.917" cy="17" r="3.25"/>
	<g display="inline">
		<polygon points="5.47,26.133 4.613,25.617 9.634,17.291 22.237,17.291 27.301,25.529 26.449,26.053 21.679,18.291 10.199,18.291 
			5.47,26.133 		"/>
	</g>
	<g display="inline">
		<polygon points="26.642,20.208 21.899,17.073 15.91,18.346 10.1,16.954 5.367,20.203 4.8,19.379 9.9,15.878 15.923,17.32 
			22.101,16.008 27.192,19.374 26.642,20.208 		"/>
	</g>
	<g display="inline">
		<polygon points="15.844,18.437 10.001,14.375 5.958,14.375 5.958,13.375 10.314,13.375 15.864,17.231 21.819,13.375 26,13.375 
			26,14.375 22.114,14.375 15.844,18.437 		"/>
	</g>
	<g display="inline">
		<path d="M14.458,7.958h-1c0-3.033-3.327-5.5-7.417-5.5v-1C10.683,1.458,14.458,4.375,14.458,7.958L14.458,7.958z"/>
	</g>
	<g display="inline">
		<path d="M18.542,8.25h-1c0-3.722,3.831-6.75,8.541-6.75v1C21.925,2.5,18.542,5.08,18.542,8.25L18.542,8.25z"/>
	</g>
	<circle display="inline" cx="6.792" cy="2.083" r="0.958"/>
	<circle display="inline" cx="25.417" cy="2" r="0.916"/>
	<g display="inline">
		<path d="M13.219,17.887c-2.815,0-10.473-1.667-11.979-3.321c-0.792-0.87-0.977-2.618-0.412-3.896
			c0.542-1.226,1.66-1.901,3.149-1.901c0.247,0,0.51,0.019,0.791,0.058c1.793,0.25,9.741,5.089,10.428,6.945
			c0.166,0.448,0.306,0.669,0.389,0.801c0.083,0.131,0.223,0.352,0.098,0.622c-0.124,0.271-0.382,0.309-0.536,0.331
			c-0.155,0.022-0.414,0.061-0.862,0.227C14.041,17.843,13.692,17.887,13.219,17.887L13.219,17.887z M3.978,9.769
			c-1.084,0-1.857,0.452-2.234,1.306c-0.436,0.986-0.234,2.301,0.237,2.819c1.123,1.233,8.232,2.994,11.239,2.994
			c0.473,0,0.661-0.051,0.72-0.073c0.21-0.078,0.39-0.133,0.541-0.173c-0.07-0.143-0.144-0.314-0.221-0.522
			c-0.498-1.344-8.021-6.077-9.629-6.302C4.398,9.784,4.182,9.769,3.978,9.769L3.978,9.769z"/>
	</g>
	<g display="inline">
		<path d="M4.83,21.718c-0.095,0-0.183-0.006-0.263-0.018c-0.941-0.133-2.136-1.166-2.415-2.494
			c-0.148-0.704-0.137-2.046,1.602-3.122c1.104-0.682,5.763-1.375,8.306-1.375c1.296,0,1.741,0.169,1.962,0.297
			c0.329,0.19,0.526,0.254,0.644,0.292c0.12,0.039,0.37,0.12,0.446,0.403c0.076,0.283-0.1,0.478-0.184,0.572
			c-0.083,0.092-0.222,0.247-0.411,0.577C13.751,18.174,7.066,21.718,4.83,21.718L4.83,21.718z M12.059,15.71
			c-2.688,0-6.997,0.741-7.78,1.225c-0.916,0.567-1.313,1.282-1.149,2.066c0.197,0.936,1.064,1.637,1.575,1.709
			c0.038,0.005,0.079,0.008,0.124,0.008c1.944,0,8.291-3.449,8.821-4.366c0.068-0.118,0.132-0.22,0.191-0.308
			c-0.096-0.046-0.202-0.103-0.32-0.171C13.475,15.846,13.181,15.71,12.059,15.71L12.059,15.71z"/>
	</g>
	<g display="inline">
		<path d="M18.782,17.887C18.781,17.887,18.781,17.887,18.782,17.887c-0.474,0-0.823-0.044-1.067-0.135
			c-0.448-0.166-0.708-0.204-0.862-0.227s-0.412-0.061-0.536-0.331s0.015-0.491,0.098-0.623c0.083-0.132,0.224-0.353,0.389-0.801
			c0.687-1.855,8.635-6.694,10.428-6.945c0.28-0.039,0.544-0.058,0.791-0.058c1.488,0,2.606,0.675,3.148,1.901
			c0.565,1.278,0.381,3.026-0.41,3.896C29.255,16.22,21.598,17.887,18.782,17.887L18.782,17.887z M17.521,16.642
			c0.154,0.041,0.332,0.095,0.541,0.173c0.059,0.021,0.247,0.072,0.72,0.072c3.007,0,10.116-1.76,11.239-2.994
			c0.471-0.518,0.672-1.833,0.236-2.819c-0.449-1.015-1.429-1.462-2.887-1.258c-1.608,0.225-9.132,4.958-9.629,6.302
			C17.663,16.329,17.589,16.5,17.521,16.642L17.521,16.642z"/>
	</g>
	<g display="inline">
		<path d="M27.172,21.718C27.171,21.718,27.171,21.718,27.172,21.718c-2.238-0.001-8.924-3.545-9.687-4.865
			c-0.19-0.331-0.329-0.485-0.412-0.578c-0.084-0.094-0.26-0.29-0.184-0.572c0.076-0.283,0.326-0.364,0.446-0.403
			c0.118-0.038,0.314-0.102,0.644-0.292c0.222-0.128,0.667-0.298,1.963-0.298c2.543,0,7.202,0.692,8.306,1.375
			c1.738,1.076,1.75,2.417,1.602,3.122c-0.279,1.328-1.474,2.361-2.414,2.494C27.354,21.712,27.267,21.718,27.172,21.718
			L27.172,21.718z M18.159,16.044c0.06,0.089,0.124,0.19,0.192,0.309c0.528,0.916,6.874,4.364,8.819,4.365
			c0.046,0,0.087-0.003,0.125-0.008c0.511-0.072,1.378-0.773,1.574-1.71c0.165-0.783-0.232-1.498-1.149-2.065
			c-0.782-0.484-5.092-1.225-7.779-1.225c-1.122,0-1.416,0.136-1.463,0.164C18.36,15.942,18.254,15.998,18.159,16.044L18.159,16.044
			z"/>
	</g>
</g>
<g id="Egg" display="none">
	<path display="inline" stroke="#000000" d="M19.416,12.083c0,4.822,3.002,17.667-1.416,17.667c-4.418,0-9.292-9.512-9.292-14.333
		C8.708,10.596,9.707,1,14.125,1C18.543,1,19.416,7.263,19.416,12.083z"/>
</g>
<g id="Larva" display="none">
	<path display="inline" fill="none" stroke="#000000" d="M22.208,3.666c0.459,1.833-2.311,1.798-4.25,2.417
		C16,6.708,14.701,7.704,14.042,7.375C12.708,6.708,13,4.625,16.542,3.5C19.229,2.646,21.625,2.5,22.208,3.666z"/>
	<path display="inline" fill="none" stroke="#000000" d="M24.333,11.791c0,0.656-2.471,0.208-5.083,0.208
		c-2.612,0-7.583,0.822-7.583,0.167s-0.292-1,6.125-2.458C26.287,8.542,24.333,11.135,24.333,11.791z"/>
	<path display="inline" fill="none" stroke="#000000" d="M25.417,15.708c-0.125,2.5-2.167,0.5-6.042,0.167
		c-3.668-0.315-9.083,0.5-8.75-1.375c0.121-0.68,1.961-1.556,5.625-1.917C27.667,11.458,25.451,15.019,25.417,15.708z"/>
	<path display="inline" fill="none" stroke="#000000" d="M24.75,20.333c-0.643,1.077-1.458,0.333-6.833-0.333
		c-5.028,0-8.667,0.295-8.667-0.959s0.508-3.498,7.917-3.125C24.625,16.291,26.416,17.541,24.75,20.333z"/>
	<path display="inline" fill="none" stroke="#000000" d="M23.625,24.041c-1.605,1.771-2.154,0.167-7.792,0.167
		c-5.417-0.625-7.917,0.858-7.917-1.167c0-2.024,2.5-3.333,10.5-2.666C24.007,20.841,25.25,22.249,23.625,24.041z"/>
	<path display="inline" fill="none" stroke="#000000" d="M22.958,26.291c0,1.45-2.423,2.375-7.521,2.375
		c-5.097,0-7.646-1.008-7.646-2.458s1.708-2.042,7.75-1.917C21.583,24.25,22.958,24.841,22.958,26.291z"/>
	<path display="inline" fill="none" stroke="#000000" d="M19.333,29.416c0,0.736-5.375,1.459-7.625,1
		C9.712,30.009,9.542,29.736,9.542,29s2.255-0.417,4.292-0.417C15.87,28.583,19.333,28.68,19.333,29.416z"/>
	<path display="inline" fill="none" stroke="#000000" d="M23.417,6.541c0.75,2.958-0.459,2.333-3.167,2.667
		c-1.953,0.58-7.119,1.674-7.417,1c-0.625-1.417,1.458-2.292,5.083-3.417S23.236,5.827,23.417,6.541z"/>
	<path display="inline" fill="none" stroke="#000000" d="M20.208,1.791c0.295,0.675-2.355,0.975-4.333,1.458
		C14,3.708,13.827,4.195,13.583,3.5c-0.292-0.833-0.009-1.262,1.958-1.792C17.708,1.125,19.917,1.125,20.208,1.791z"/>
	<g id="Layer_4" display="inline">
	</g>
</g>
<g id="Pollen" display="none">
	<polygon display="inline" stroke="#000000" points="15.284,28.122 12.626,30.326 11.244,27.039 9.426,25.99 6.147,26.586 
		6.468,23.032 5.419,21.214 2.408,20.107 4.336,17.174 4.336,15.075 2.408,12.626 5.419,11.035 6.468,9.217 6.147,6.147 
		9.426,6.259 11.244,5.21 12.626,2.408 15.284,4.127 17.384,4.127 20.107,2.408 21.423,5.21 23.241,6.259 26.586,6.147 
		26.199,9.217 27.248,11.035 30.326,12.626 28.331,15.075 28.331,17.174 30.326,20.107 27.248,21.214 26.199,23.032 26.586,26.586 
		23.241,25.99 21.423,27.039 20.107,30.326 17.384,28.122 	"/>
</g>
<g id="Honeypot" display="none">
	<path display="inline" d="M24.335,12.881c0.847-0.491,1.342-1.061,1.342-1.671c0-1.705-3.785-3.107-8.643-3.283
		c-0.354-0.042-0.712-0.066-1.076-0.066c-0.377,0-0.748,0.027-1.115,0.073c-4.793,0.196-8.51,1.587-8.51,3.275
		c0,0.595,0.467,1.151,1.273,1.633c-1.124,1.85-1.785,4.088-1.785,6.504c0,6.343,4.538,11.485,10.137,11.485
		c5.598,0,10.137-5.143,10.137-11.485C26.096,16.948,25.445,14.723,24.335,12.881z M21.259,19.672
		c-1.069-0.976-1.161-2.79-1.349-2.604c-0.186,0.186-0.698,1.676,0.558,6.093c1.255,4.416-6.183,10.136-4.928-1.675
		c0.79-3.673-1.814-6.184-1.814-6.184c3.403-0.052,2.225,0.074,5.021-0.326c1.954-0.279,3.999-0.836,3.999-0.836
		s-1.395,0.231,0,3.021C24.142,19.951,22.416,20.729,21.259,19.672z M15.958,13.098c-4.211,0-7.624-0.908-7.624-2.029
		c0-1.12,3.412-2.028,7.624-2.028c4.21,0,7.625,0.908,7.625,2.028C23.583,12.19,20.169,13.098,15.958,13.098z"/>
	<path display="inline" d="M19.389,12.02c0.06-0.265,3.614-4.838,6.326-9.784c2.417-4.407-2.952,1.967-2.952,1.967l-6.388,7.764
		L19.389,12.02z"/>
</g>
<g id="Tombstone">
	<g>
		<path d="M25.313,28.692L5.421,28.495l0.017-0.512c0.001-0.037,0.125-3.862,0.187-13.799C5.69,3.75,14.78,3.563,14.872,3.563
			c3.15,0,5.663,0.935,7.472,2.779c3.021,3.077,2.973,7.542,2.969,7.73V28.692L25.313,28.692z M6.452,27.505l17.861,0.178v-13.62
			c0.001-0.051,0.038-4.255-2.688-7.027c-1.614-1.641-3.886-2.473-6.75-2.473c-0.33,0.003-8.191,0.194-8.25,9.628
			C6.576,22.124,6.486,26.17,6.452,27.505L6.452,27.505z"/>
	</g>
	<g>
		<path d="M27.625,12.746c0-0.032-0.064-3.212-2.66-5.586c-2.282-2.088-5.79-2.962-10.426-2.599l-0.078-0.997
			c4.935-0.386,8.7,0.58,11.193,2.871c2.914,2.677,2.97,6.157,2.971,6.303L27.625,12.746L27.625,12.746z"/>
	</g>
	<g>
		<polygon points="28.625,25.001 27.625,25.001 27.625,12.742 28.625,12.742 28.625,25.001 		"/>
	</g>
	<g>
		<polygon points="25.179,28.528 24.446,27.847 27.821,24.222 28.554,24.903 25.179,28.528 		"/>
	</g>
	<g>
		<path d="M12.395,16.918c-0.02,0-0.035-0.008-0.047-0.023s-0.021-0.035-0.026-0.059s-0.01-0.047-0.012-0.07
			s-0.003-0.043-0.003-0.059c0-0.051,0.007-0.1,0.021-0.146s0.021-0.092,0.021-0.135c0-0.035-0.005-0.105-0.015-0.211
			s-0.024-0.216-0.044-0.331s-0.044-0.222-0.073-0.319s-0.063-0.156-0.103-0.176c0.012-0.008,0.015-0.03,0.009-0.067
			s-0.016-0.077-0.029-0.12s-0.026-0.084-0.038-0.123s-0.018-0.064-0.018-0.076l-0.041-0.082c-0.004-0.012-0.012-0.031-0.023-0.059
			s-0.024-0.058-0.038-0.091s-0.025-0.063-0.035-0.091s-0.015-0.047-0.015-0.059c-0.027-0.012-0.065-0.042-0.114-0.091
			s-0.098-0.104-0.146-0.164s-0.091-0.118-0.126-0.173s-0.053-0.092-0.053-0.111c-0.059-0.016-0.107-0.03-0.146-0.044
			s-0.088-0.025-0.146-0.035s-0.137-0.017-0.234-0.021s-0.232-0.006-0.404-0.006c-0.004,0-0.009,0.007-0.015,0.021
			s-0.012,0.03-0.018,0.05s-0.011,0.039-0.015,0.059s-0.006,0.035-0.006,0.047c0,0.016,0.007,0.042,0.021,0.079
			s0.021,0.06,0.021,0.067l-0.041,0.111v0.234v0.24c0,0.008,0.002,0.023,0.006,0.047s0.009,0.048,0.015,0.073
			s0.011,0.049,0.015,0.07s0.006,0.034,0.006,0.038c0,0.008-0.002,0.023-0.006,0.047s-0.009,0.049-0.015,0.076
			s-0.011,0.053-0.015,0.076s-0.006,0.039-0.006,0.047c0,0.043,0.007,0.081,0.021,0.114s0.029,0.065,0.047,0.097
			s0.034,0.063,0.05,0.094s0.023,0.066,0.023,0.105v0.07l-0.047,0.094c0,0.031,0.007,0.067,0.021,0.108s0.029,0.083,0.047,0.126
			s0.033,0.086,0.047,0.129s0.021,0.082,0.021,0.117c0,0.047-0.008,0.086-0.023,0.117s-0.023,0.066-0.023,0.105v0.012l0.088-0.041
			v0.07c0,0.074-0.007,0.16-0.021,0.258s-0.036,0.18-0.067,0.246h0.059c0,0.063-0.025,0.125-0.076,0.188s-0.112,0.118-0.185,0.167
			s-0.146,0.088-0.223,0.117s-0.14,0.044-0.19,0.044H9.992L9.951,17.65l-0.094,0.047H9.811c-0.066,0-0.131-0.013-0.193-0.038
			s-0.123-0.058-0.182-0.097c-0.031-0.086-0.07-0.164-0.117-0.234s-0.07-0.145-0.07-0.223H9.207c0-0.039-0.002-0.075-0.006-0.108
			s-0.018-0.062-0.041-0.085V16.32c0.016,0,0.027-0.013,0.035-0.038s0.012-0.042,0.012-0.05v-0.469c0-0.047,0.016-0.093,0.047-0.138
			s0.047-0.091,0.047-0.138c0-0.043-0.009-0.073-0.026-0.091s-0.026-0.056-0.026-0.114c0-0.063,0.007-0.127,0.021-0.193
			s0.029-0.132,0.047-0.196s0.034-0.128,0.05-0.19s0.023-0.123,0.023-0.182l-0.041-0.105v-0.199c0-0.09,0.002-0.17,0.006-0.24
			s0.016-0.15,0.035-0.24H9.377c0-0.051-0.004-0.096-0.012-0.135s-0.017-0.074-0.026-0.105s-0.019-0.063-0.026-0.094
			s-0.012-0.066-0.012-0.105c0-0.008,0.002-0.017,0.006-0.026s0.018-0.026,0.041-0.05c0-0.023-0.005-0.045-0.015-0.064
			s-0.021-0.039-0.035-0.059s-0.025-0.041-0.035-0.064s-0.015-0.051-0.015-0.082l0.053-0.094v-0.375
			c0.012-0.004,0.022-0.017,0.032-0.038s0.015-0.04,0.015-0.056c0-0.012-0.005-0.035-0.015-0.07s-0.021-0.072-0.035-0.111
			s-0.025-0.076-0.035-0.111s-0.015-0.059-0.015-0.07v-0.047l0.053-0.088c0-0.02-0.009-0.048-0.026-0.085s-0.026-0.065-0.026-0.085
			c0-0.016,0.003-0.029,0.009-0.041s0.012-0.023,0.018-0.035s0.012-0.024,0.018-0.038s0.009-0.034,0.009-0.062
			c0-0.016,0.001-0.046,0.003-0.091s-0.017-0.071-0.056-0.079v-0.434l-0.041,0.012c-0.004-0.004-0.014-0.02-0.029-0.047
			c-0.008-0.012-0.014-0.025-0.018-0.041c0-0.012,0.015-0.026,0.044-0.044s0.044-0.034,0.044-0.05c0-0.008-0.003-0.021-0.009-0.038
			s-0.017-0.034-0.032-0.05c0-0.023,0.002-0.04,0.006-0.05s0.016-0.022,0.035-0.038c-0.031-0.02-0.059-0.068-0.082-0.146
			s-0.042-0.163-0.056-0.255s-0.023-0.177-0.029-0.255S9.072,9.811,9.072,9.787c0-0.098,0.006-0.186,0.018-0.264
			s0.035-0.145,0.07-0.199s0.084-0.097,0.146-0.126s0.145-0.044,0.246-0.044c0.09,0,0.17,0.015,0.24,0.044s0.148,0.044,0.234,0.044
			h0.059l0.088-0.047c0.016,0,0.041,0.008,0.076,0.023s0.057,0.023,0.064,0.023h0.117c0.059,0,0.114-0.007,0.167-0.021
			s0.104-0.029,0.155-0.047s0.102-0.033,0.152-0.047s0.1-0.021,0.146-0.021h0.088c0.008,0,0.028,0.003,0.062,0.009
			s0.068,0.012,0.105,0.018s0.072,0.011,0.105,0.015s0.056,0.006,0.067,0.006c0.008,0,0.027-0.008,0.059-0.023
			s0.055-0.023,0.07-0.023c0.094,0.016,0.183,0.046,0.267,0.091s0.169,0.067,0.255,0.067v0.082l0.088-0.047
			c0.039,0.02,0.08,0.039,0.123,0.059c0.074,0.039,0.139,0.078,0.193,0.117c0.043,0.02,0.086,0.051,0.129,0.094
			s0.092,0.055,0.146,0.035l-0.047,0.041c0.043,0.063,0.09,0.112,0.141,0.149s0.098,0.074,0.141,0.111s0.079,0.079,0.108,0.126
			s0.044,0.109,0.044,0.188h0.076c0.016,0,0.029,0.018,0.041,0.053s0.023,0.075,0.035,0.12s0.022,0.089,0.032,0.132
			s0.021,0.072,0.032,0.088c0.023,0.031,0.043,0.053,0.059,0.064s0.029,0.021,0.041,0.026s0.021,0.014,0.026,0.023
			s0.009,0.028,0.009,0.056c0,0.035,0.002,0.057,0.006,0.064s0.011,0.014,0.021,0.018s0.023,0.012,0.041,0.023
			s0.04,0.039,0.067,0.082l-0.094,0.082c0.039,0.023,0.064,0.05,0.076,0.079s0.018,0.062,0.018,0.097
			c0.039,0,0.064,0.007,0.076,0.021s0.018,0.029,0.018,0.047s0.002,0.037,0.006,0.059s0.021,0.038,0.053,0.05
			c-0.016,0.012-0.029,0.044-0.041,0.097s-0.018,0.091-0.018,0.114l0.059,0.088v0.111c0,0.008-0.013,0.045-0.038,0.111
			s-0.054,0.139-0.085,0.217c-0.039,0.094-0.08,0.197-0.123,0.311c-0.008,0.012-0.035,0.026-0.082,0.044s-0.078,0.03-0.094,0.038
			c-0.02,0.016-0.04,0.044-0.062,0.085s-0.044,0.081-0.067,0.12s-0.047,0.071-0.07,0.097s-0.049,0.03-0.076,0.015
			c-0.012,0.012-0.03,0.03-0.056,0.056s-0.054,0.051-0.085,0.076s-0.061,0.05-0.088,0.073s-0.047,0.041-0.059,0.053l-0.141,0.041
			c-0.004,0-0.009,0.007-0.015,0.021s-0.014,0.029-0.023,0.047s-0.019,0.033-0.026,0.047s-0.016,0.021-0.023,0.021
			c-0.023,0.012-0.052,0.016-0.085,0.012s-0.066-0.005-0.1-0.003s-0.062,0.01-0.085,0.023s-0.035,0.04-0.035,0.079
			c0,0.012,0.004,0.029,0.012,0.053c0.004,0.012,0.01,0.021,0.018,0.029l0.229,0.211v0.053l0.047-0.018
			c0.016,0.008,0.041,0.03,0.076,0.067s0.057,0.06,0.064,0.067l-0.053,0.047c0.02,0.02,0.049,0.057,0.088,0.111
			s0.079,0.113,0.12,0.176s0.078,0.121,0.111,0.176s0.056,0.092,0.067,0.111c0.004,0.012,0.011,0.032,0.021,0.062
			s0.021,0.06,0.035,0.091s0.027,0.062,0.041,0.091s0.024,0.048,0.032,0.056v0.088l0.047,0.082l-0.047,0.105
			c0,0.004,0.005,0.014,0.015,0.029s0.021,0.031,0.035,0.047s0.029,0.03,0.047,0.044s0.032,0.021,0.044,0.021
			c0,0.047,0.008,0.089,0.023,0.126s0.023,0.077,0.023,0.12v0.041c0,0.008,0.002,0.026,0.006,0.056s0.009,0.061,0.015,0.094
			s0.012,0.063,0.018,0.091s0.009,0.043,0.009,0.047c0,0.078,0.011,0.146,0.032,0.202s0.047,0.111,0.076,0.164
			s0.06,0.105,0.091,0.158s0.055,0.116,0.07,0.19c0,0.012,0.002,0.028,0.006,0.05s0.01,0.042,0.018,0.062
			c0.008,0.023,0.016,0.047,0.023,0.07h0.07c0,0.031,0.003,0.074,0.009,0.129s0.028,0.1,0.067,0.135v0.504
			c-0.02,0-0.037,0.008-0.053,0.023s-0.03,0.035-0.044,0.059s-0.028,0.047-0.044,0.07s-0.033,0.041-0.053,0.053
			c-0.027,0.012-0.064,0.028-0.111,0.05s-0.095,0.043-0.144,0.064s-0.096,0.041-0.141,0.059s-0.081,0.03-0.108,0.038
			c-0.02,0-0.048-0.013-0.085-0.038s-0.067-0.042-0.091-0.05c-0.078-0.027-0.143-0.048-0.193-0.062s-0.094-0.03-0.129-0.05
			s-0.064-0.046-0.088-0.079s-0.045-0.085-0.064-0.155c-0.02-0.051-0.036-0.093-0.05-0.126s-0.025-0.065-0.035-0.097
			s-0.018-0.067-0.023-0.108s-0.009-0.097-0.009-0.167H12.395z M11.428,12.764c0.07,0,0.146-0.028,0.229-0.085
			s0.163-0.123,0.243-0.199s0.152-0.152,0.217-0.229s0.112-0.132,0.144-0.167c0.035-0.039,0.065-0.071,0.091-0.097
			s0.045-0.051,0.059-0.076s0.023-0.059,0.029-0.1s0.009-0.101,0.009-0.179c0-0.141-0.01-0.265-0.029-0.372s-0.053-0.205-0.1-0.293
			s-0.109-0.169-0.188-0.243s-0.176-0.15-0.293-0.229c-0.016-0.012-0.027-0.024-0.035-0.038s-0.017-0.026-0.026-0.038
			s-0.023-0.022-0.041-0.032s-0.044-0.017-0.079-0.021c-0.02,0-0.042-0.002-0.067-0.006s-0.05-0.01-0.073-0.018
			c-0.027-0.008-0.057-0.016-0.088-0.023v-0.047c-0.043,0-0.088,0.008-0.135,0.023s-0.098,0.023-0.152,0.023h-0.047
			c-0.008,0-0.035-0.008-0.082-0.023s-0.078-0.023-0.094-0.023c-0.125,0-0.222,0.029-0.29,0.088s-0.118,0.134-0.149,0.226
			s-0.05,0.192-0.056,0.302s-0.009,0.213-0.009,0.311v0.264c0.016,0,0.026,0.009,0.032,0.026s0.01,0.038,0.012,0.062
			s0.003,0.045,0.003,0.064s0,0.031,0,0.035c0,0.008,0,0.021,0,0.041s-0.001,0.04-0.003,0.062s-0.006,0.04-0.012,0.056
			s-0.017,0.023-0.032,0.023c0,0.055,0.006,0.122,0.018,0.202s0.035,0.144,0.07,0.19v0.539H11.428z"/>
		<path d="M15.045,17.609c0.008-0.012,0.009-0.027,0.003-0.047s-0.015-0.04-0.026-0.062S15,17.458,14.99,17.437
			s-0.015-0.04-0.015-0.056h-0.041l-0.023-0.082c-0.008-0.02-0.014-0.04-0.018-0.062s-0.006-0.038-0.006-0.05v-0.053
			c0.023,0,0.042-0.002,0.056-0.006s0.024-0.018,0.032-0.041c-0.016-0.012-0.033-0.047-0.053-0.105s-0.038-0.125-0.056-0.199
			s-0.033-0.147-0.047-0.22s-0.021-0.128-0.021-0.167v-0.088c0-0.004,0.002-0.017,0.006-0.038s0.009-0.045,0.015-0.07
			s0.011-0.05,0.015-0.073s0.006-0.039,0.006-0.047l-0.041-0.088v-0.029v-0.018l0.041-0.041c0.031-0.031,0.047-0.049,0.047-0.053
			l-0.047-0.088c-0.004-0.012-0.008-0.025-0.012-0.041s-0.008-0.033-0.012-0.053c-0.008-0.016-0.014-0.035-0.018-0.059l0.041-0.094
			l-0.041-0.047v-0.059c0-0.02,0.002-0.04,0.006-0.062s0.016-0.04,0.035-0.056c-0.02-0.008-0.031-0.019-0.035-0.032
			s-0.006-0.024-0.006-0.032c0-0.027,0.005-0.06,0.015-0.097s0.02-0.074,0.029-0.111s0.02-0.071,0.029-0.103
			s0.015-0.059,0.015-0.082l-0.047-0.105c0-0.008,0.008-0.028,0.023-0.062s0.023-0.06,0.023-0.079v-0.146
			c0-0.102-0.008-0.197-0.023-0.287s-0.023-0.18-0.023-0.27c0-0.023,0.002-0.051,0.006-0.082s0.033-0.045,0.088-0.041
			c-0.023-0.008-0.045-0.021-0.064-0.041s-0.029-0.043-0.029-0.07v-0.029c0-0.008,0.016-0.027,0.047-0.059s0.047-0.055,0.047-0.07
			c0-0.012-0.016-0.029-0.047-0.053l-0.047-0.035v-0.041c0-0.02,0.01-0.034,0.029-0.044s0.041-0.015,0.064-0.015
			c-0.004-0.055-0.004-0.098,0-0.129s0.009-0.058,0.015-0.079s0.012-0.044,0.018-0.067s0.009-0.057,0.009-0.1
			c0-0.023-0.002-0.04-0.006-0.05s-0.016-0.022-0.035-0.038c0.031-0.023,0.055-0.053,0.07-0.088s0.028-0.072,0.038-0.111
			s0.017-0.077,0.021-0.114s0.008-0.067,0.012-0.091c0.035-0.18,0.051-0.353,0.047-0.519s-0.006-0.343-0.006-0.53v-0.668
			c-0.023-0.023-0.037-0.048-0.041-0.073s-0.005-0.052-0.003-0.079s0.005-0.056,0.009-0.085s0.002-0.06-0.006-0.091
			c-0.004-0.027-0.014-0.05-0.029-0.067s-0.031-0.037-0.047-0.059s-0.03-0.045-0.044-0.07s-0.021-0.058-0.021-0.097
			c0-0.074,0.015-0.146,0.044-0.217s0.044-0.127,0.044-0.17c0-0.023-0.015-0.059-0.044-0.105s-0.044-0.078-0.044-0.094
			c0-0.047,0.013-0.084,0.038-0.111s0.055-0.052,0.088-0.073s0.065-0.042,0.097-0.062s0.055-0.045,0.07-0.076h0.17
			c0.148,0,0.283,0.032,0.404,0.097s0.227,0.153,0.316,0.267c-0.008,0.055,0,0.116,0.023,0.185s0.035,0.136,0.035,0.202h0.047v0.041
			l-0.047,0.088v0.381l-0.059,0.041c0.027,0.07,0.048,0.133,0.063,0.188c0.013,0.055,0.023,0.105,0.029,0.152
			s0.009,0.094,0.012,0.141c0.001,0.047,0.002,0.1,0.002,0.158c0,0.148-0.012,0.285-0.035,0.41s-0.027,0.266-0.012,0.422
			l-0.059,0.041v0.879l-0.041,0.047v0.475l-0.053,0.041c0.027,0.016,0.043,0.034,0.047,0.056s0.006,0.042,0.006,0.062v0.059
			l-0.053,0.1v0.334c-0.008,0-0.018,0.003-0.029,0.009s-0.018,0.017-0.018,0.032c0,0.008,0.008,0.028,0.023,0.062
			s0.023,0.058,0.023,0.073v0.041c0,0.027-0.002,0.049-0.006,0.064S16,14.367,15.977,14.375v0.316c0,0.016-0.007,0.04-0.02,0.073
			c-0.015,0.033-0.021,0.058-0.021,0.073l0.041,0.047c0,0.004-0.001,0.017-0.002,0.038c-0.003,0.021-0.004,0.045-0.004,0.07
			s-0.001,0.05-0.002,0.073c-0.003,0.023-0.004,0.039-0.004,0.047c0.008,0,0.028-0.002,0.063-0.006
			c0.032-0.004,0.049,0.012,0.049,0.047c0,0.004-0.002,0.013-0.008,0.026s-0.012,0.028-0.018,0.044s-0.012,0.03-0.018,0.044
			s-0.01,0.022-0.01,0.026v0.076v0.059c0.043,0.129,0.08,0.259,0.109,0.39s0.043,0.265,0.043,0.401c0,0.008,0.001,0.021,0.004,0.041
			c0.001,0.02,0,0.039-0.004,0.059s-0.01,0.037-0.018,0.053s-0.021,0.023-0.041,0.023l0.059,0.041v0.334l-0.059,0.047
			c0.039,0.027,0.064,0.057,0.076,0.088s0.018,0.063,0.018,0.094c0,0.098-0.014,0.191-0.041,0.281s-0.066,0.168-0.119,0.234
			s-0.12,0.12-0.199,0.161c-0.081,0.041-0.174,0.062-0.279,0.062c-0.023,0-0.06,0-0.108,0s-0.098-0.005-0.146-0.015
			s-0.091-0.027-0.126-0.053s-0.053-0.062-0.053-0.108L15.045,17.609z"/>
		<path d="M18.118,17.51v-0.041c-0.098,0-0.186-0.024-0.264-0.073s-0.145-0.112-0.199-0.19s-0.097-0.168-0.126-0.27
			s-0.044-0.205-0.044-0.311c0-0.066,0.005-0.115,0.015-0.146s0.022-0.057,0.038-0.076s0.031-0.041,0.047-0.064
			s0.029-0.059,0.041-0.105c0.012-0.051,0.015-0.093,0.009-0.126s-0.01-0.063-0.012-0.091s0.002-0.055,0.012-0.082
			s0.036-0.059,0.079-0.094c-0.023-0.008-0.037-0.02-0.041-0.035s-0.006-0.039-0.006-0.07v-0.053l0.047-0.041
			c0-0.008-0.008-0.03-0.023-0.067s-0.023-0.063-0.023-0.079c0-0.258,0.016-0.514,0.047-0.768s0.047-0.514,0.047-0.779
			c0-0.051-0.003-0.098-0.009-0.141s-0.012-0.085-0.018-0.126s-0.011-0.084-0.015-0.129s-0.006-0.099-0.006-0.161v-0.199
			l0.047-0.047v-0.639c-0.016,0-0.027-0.005-0.035-0.015s-0.012-0.019-0.012-0.026c0-0.086,0.015-0.173,0.044-0.261
			s0.044-0.179,0.044-0.272c0-0.09-0.015-0.179-0.044-0.267s-0.044-0.171-0.044-0.249c0-0.016,0.008-0.04,0.023-0.073
			s0.023-0.054,0.023-0.062c-0.016-0.16-0.042-0.312-0.079-0.454s-0.056-0.294-0.056-0.454h-0.094c0.008,0,0.018-0.011,0.029-0.032
			s0.018-0.04,0.018-0.056c0-0.012-0.007-0.03-0.021-0.056s-0.028-0.053-0.044-0.082s-0.031-0.057-0.047-0.082
			s-0.025-0.042-0.029-0.05v-0.68c0-0.023,0.016-0.049,0.047-0.076s0.067-0.053,0.108-0.076s0.081-0.042,0.12-0.056
			s0.068-0.021,0.088-0.021c0.004,0,0.015,0.002,0.032,0.006s0.036,0.009,0.056,0.015s0.039,0.011,0.059,0.015
			s0.033,0.006,0.041,0.006s0.027-0.003,0.059-0.009s0.055-0.017,0.07-0.032v0.041c0.004-0.004,0.015-0.008,0.032-0.012
			s0.036-0.008,0.056-0.012s0.039-0.008,0.059-0.012s0.033-0.006,0.041-0.006s0.027,0.013,0.059,0.038s0.057,0.042,0.076,0.05
			c0.008-0.023,0.014-0.037,0.018-0.041s0.02-0.006,0.047-0.006c0.059,0,0.112,0.008,0.161,0.023s0.101,0.023,0.155,0.023
			c0.176,0,0.354-0.015,0.536-0.044s0.36-0.044,0.536-0.044l0.041,0.041c0.008,0,0.028-0.007,0.062-0.021s0.06-0.021,0.079-0.021
			h0.088c0.09,0,0.181,0.015,0.272,0.044s0.185,0.044,0.278,0.044c0.008,0,0.024-0.004,0.05-0.012s0.038-0.02,0.038-0.035
			c0.008,0.016,0.035,0.041,0.082,0.076s0.078,0.057,0.094,0.064c0.102,0.059,0.19,0.118,0.267,0.179s0.165,0.106,0.267,0.138
			c0.012,0.008,0.036,0.047,0.073,0.117s0.077,0.146,0.12,0.229s0.081,0.157,0.114,0.226s0.05,0.104,0.05,0.108h0.029
			c0,0.012,0.01,0.059,0.029,0.141s0.041,0.169,0.064,0.261s0.046,0.176,0.067,0.252s0.034,0.114,0.038,0.114v0.416v0.404
			c0,0.035-0.007,0.091-0.021,0.167s-0.033,0.155-0.059,0.237s-0.054,0.158-0.085,0.229s-0.064,0.115-0.1,0.135
			c0.031,0,0.047,0.016,0.047,0.047c-0.008,0.16-0.064,0.321-0.17,0.483s-0.233,0.314-0.384,0.457s-0.311,0.27-0.48,0.381
			s-0.321,0.192-0.454,0.243c-0.094,0.035-0.204,0.065-0.331,0.091s-0.258,0.047-0.393,0.064s-0.267,0.029-0.396,0.035
			s-0.24,0.003-0.334-0.009c-0.008,0.078-0.019,0.143-0.032,0.193s-0.028,0.1-0.044,0.146s-0.028,0.095-0.038,0.144
			s-0.015,0.11-0.015,0.185c0,0.008,0.002,0.021,0.006,0.041s0.009,0.041,0.015,0.064s0.011,0.045,0.015,0.064
			s0.006,0.031,0.006,0.035l-0.029,0.053v0.252l-0.012,0.053c0.004,0.051,0.006,0.111,0.006,0.182s0.003,0.142,0.009,0.214
			s0.014,0.142,0.023,0.208s0.026,0.123,0.05,0.17c0,0.023,0.014,0.045,0.041,0.064c0.016,0.016,0.031,0.027,0.047,0.035v0.035
			v0.018l-0.047,0.1c0,0.02,0.008,0.049,0.023,0.088s0.023,0.063,0.023,0.07c0,0.02-0.003,0.047-0.009,0.082
			s-0.015,0.071-0.026,0.108s-0.025,0.071-0.041,0.103s-0.035,0.053-0.059,0.064l0.047,0.047c-0.039,0-0.072,0.018-0.1,0.053
			s-0.041,0.068-0.041,0.1l-0.363,0.158V17.51H18.118z M18.897,13.174c0,0.004,0.01,0.013,0.029,0.026s0.043,0.028,0.07,0.044
			s0.053,0.029,0.076,0.041s0.041,0.018,0.053,0.018l0.088-0.053c0.008,0,0.027,0.009,0.059,0.026s0.057,0.026,0.076,0.026h0.182
			c0.078,0,0.173-0.021,0.284-0.064s0.221-0.1,0.328-0.17s0.203-0.15,0.287-0.24s0.138-0.18,0.161-0.27
			c0.012-0.055,0.018-0.093,0.018-0.114s0.002-0.038,0.006-0.05s0.011-0.027,0.021-0.047s0.03-0.053,0.062-0.1
			c0.055-0.09,0.096-0.199,0.123-0.328s0.041-0.25,0.041-0.363c0-0.059-0.005-0.111-0.015-0.158s-0.021-0.094-0.035-0.141
			s-0.025-0.094-0.035-0.141s-0.015-0.098-0.015-0.152c0-0.023-0.008-0.057-0.023-0.1s-0.023-0.076-0.023-0.1
			c0-0.02-0.01-0.04-0.029-0.062s-0.039-0.043-0.059-0.064s-0.036-0.043-0.05-0.064s-0.015-0.042-0.003-0.062
			c-0.023-0.016-0.062-0.039-0.114-0.07s-0.11-0.063-0.173-0.097s-0.122-0.062-0.179-0.085s-0.099-0.035-0.126-0.035l-0.088,0.041
			h-0.029h-0.018l-0.088-0.041c-0.008,0-0.028,0.002-0.062,0.006s-0.068,0.009-0.105,0.015s-0.07,0.011-0.1,0.015
			s-0.046,0.006-0.05,0.006c-0.031,0-0.082,0.003-0.152,0.009s-0.141,0.017-0.211,0.032s-0.133,0.035-0.188,0.059
			s-0.082,0.053-0.082,0.088v0.428l0.041,0.047c0.004,0.02,0.011,0.049,0.021,0.088s0.02,0.081,0.029,0.126s0.019,0.085,0.026,0.12
			s0.012,0.057,0.012,0.064s-0.005,0.036-0.015,0.085s-0.019,0.081-0.026,0.097V13.174z"/>
	</g>
</g>
</svg>
